<?xml version="1.0" standalone="no"?>
<!DOCTYPE svg PUBLIC "-//W3C//DTD SVG 1.1//EN" "http://www.w3.org/Graphics/SVG/1.1/DTD/svg11.dtd" >
<svg xmlns="http://www.w3.org/2000/svg">
<metadata>Generated by IcoMoon</metadata>
<defs>
<font id="CloudSideTech" horiz-adv-x="1024">
<font-face units-per-em="1024" ascent="960" descent="-64" />
<missing-glyph horiz-adv-x="1024" />
<glyph unicode="&#x20;" horiz-adv-x="512" d="" />
<glyph unicode="&#xe900;" glyph-name="liveBets" horiz-adv-x="755" d="M376.427 786.791c-60.404 0-109.521-51.2-109.521-114.165s49.117-114.165 109.521-114.165c60.404 0 109.521 51.2 109.521 114.165s-49.117 114.165-109.521 114.165zM376.427 623.169c-26.126 0-47.445 22.223-47.445 49.457s21.319 49.457 47.445 49.457c26.126 0 47.654-22.223 47.654-49.457s-21.319-49.457-47.654-49.457zM254.783 799.428c12.123 12.637 12.123 33.117 0 45.753s-31.77 12.637-43.892 0c-91.337-95.21-91.337-250.117 0-345.11 6.061-6.318 14.004-9.369 21.946-9.369s15.885 3.050 21.946 9.369c12.123 12.637 12.123 33.117 0 45.753-67.092 69.937-67.092 183.666 0 253.603zM541.963 845.181c-12.123 12.637-31.77 12.637-43.892 0s-12.123-33.117 0-45.753c32.606-33.988 50.58-79.088 50.58-126.802s-17.975-92.814-50.58-126.802c-12.123-12.637-12.123-33.117 0-45.753 6.061-6.318 14.004-9.369 21.946-9.369s15.885 3.050 21.946 9.369c44.31 46.189 68.764 107.411 68.764 172.555s-24.245 126.366-68.764 172.555zM62.076 672.191c0 87.367 32.815 169.723 92.382 232.034 12.123 12.637 12.123 33.117 0 45.753s-31.77 12.637-43.892 0c-71.272-74.512-110.566-173.209-110.566-277.787s39.294-203.275 110.566-277.569c6.061-6.318 14.004-9.369 21.946-9.369s15.885 3.050 21.946 9.369c12.123 12.637 12.123 33.117 0 45.753-59.568 61.876-92.382 144.231-92.382 231.816zM642.288 949.76c-12.123 12.637-31.77 12.637-43.892 0s-12.123-33.117 0-45.753c122.689-127.891 122.689-335.959 0-463.85-12.123-12.637-12.123-33.117 0-45.753 6.061-6.318 14.004-9.369 21.946-9.369s15.885 3.050 21.946 9.586c146.934 152.946 146.934 401.974 0 555.139zM252.935 360.212l44.31 45.315 321.428-341.516-44.31-45.315zM134.314 63.924l322.565 341.611 44.242-45.393-322.565-341.611zM650.648-19.99l-216.116 625.947c-5.852 16.776-23.618 25.491-39.712 19.391s-24.454-24.62-18.602-41.396l215.907-625.947c4.598-13.072 16.512-21.351 29.261-21.351 3.553 0 7.106 0.654 10.451 1.961 16.094 6.1 24.454 24.62 18.811 41.396zM359.079 625.566c-16.094 6.1-33.86-2.614-39.712-19.391l-216.952-626.165c-5.852-16.776 2.508-35.295 18.602-41.396 3.553-1.307 7.106-1.961 10.451-1.961 12.75 0 24.663 8.279 29.052 21.351l216.952 625.947c6.061 16.994-2.299 35.513-18.393 41.614z" />
<glyph unicode="&#xe901;" glyph-name="icon-lock" d="M481.28 776.533c20.48 0 40.96 0 61.44 0 1.707-0.853 3.413-0.853 5.973-1.707 88.747-16.213 157.867-86.187 171.52-175.787 5.12-34.133 1.707-69.12 1.707-103.253 0-11.093 3.413-15.36 14.507-16.213 29.013-2.56 45.227-19.627 46.080-48.64 0.853-87.040 0.853-174.933 0-261.973 0-31.573-19.627-49.493-51.2-49.493-145.92 0-292.693 0-438.613 0-31.573 0-50.347 17.92-51.2 49.493-0.853 87.040-0.853 174.933 0 261.973 0 29.013 17.067 46.080 46.080 48.64 11.947 0.853 14.507 5.973 14.507 16.213 0 26.453 0 53.76 0 80.213 0 27.307 5.973 53.76 17.92 78.507 34.133 67.413 87.040 108.373 161.28 122.027zM512 480.427c34.133 0 68.267 0 101.547 0 11.093 0 15.36 4.267 15.36 15.36-0.853 25.6 0 51.2 0 76.8-0.853 58.027-47.787 107.52-105.813 112.64-59.733 5.12-114.347-33.28-126.293-91.307-6.827-32.427-1.707-64.853-3.413-97.28-0.853-12.8 5.12-17.067 17.067-17.067 34.987 0.853 68.267 0.853 101.547 0.853z" />
<glyph unicode="&#xe902;" glyph-name="done" d="M384 268l452 454 60-60-512-512-238 238 58 60z" />
<glyph unicode="&#xe903;" glyph-name="person" d="M512 362q108 0 225-47t117-123v-86h-684v86q0 76 117 123t225 47zM512 448q-70 0-120 50t-50 120 50 121 120 51 120-51 50-121-50-120-120-50z" />
<glyph unicode="&#xe904;" glyph-name="httpslock" d="M644 618v86q0 54-39 93t-93 39-93-39-39-93v-86h264zM512 234q34 0 60 26t26 60-26 60-60 26-60-26-26-60 26-60 60-26zM768 618q34 0 60-25t26-59v-428q0-34-26-59t-60-25h-512q-34 0-60 25t-26 59v428q0 34 26 59t60 25h42v86q0 88 63 151t151 63 151-63 63-151v-86h42z" />
<glyph unicode="&#xe905;" glyph-name="buyin_bg" d="M993.046 707.164h-962.091v-518.416h962.091v518.416zM930.27 549.099c-50.637 3.468-90.782 44.74-92.688 95.723l-651.164 0.261c-1.908-50.983-42.053-92.255-92.688-95.723 0-67.544 0-135.089 0-202.633 50.55-3.468 90.782-44.74 92.688-95.723l651.164-0.261c1.908 50.983 42.053 92.255 92.688 95.723 0 67.544 0 135.089 0 202.633zM170.204 676.125l701.366-0.261-2.427-17.602c-0.173-1.475-0.347-3.121-0.521-4.768-0.088-1.387-0.173-2.947-0.173-4.856 0-37.976 30.782-68.758 68.758-68.758 1.734 0 2.947 0 3.556 0.088 1.215 0.088 2.341 0.173 3.468 0.261l16.993 1.734v-17.081c0-77.948 0-155.984 0-233.933v-17.081l-16.993 1.734c-1.127 0.088-2.253 0.173-3.468 0.261-0.606 0-1.821 0.088-3.556 0.088-37.976 0-68.758-30.782-68.758-68.758 0-1.908 0.088-3.468 0.173-4.856 0.088-1.648 0.261-3.296 0.521-4.768l2.427-17.602-719.141 0.261 2.427 17.602c0.173 1.475 0.347 3.121 0.521 4.768 0.088 1.387 0.173 2.947 0.173 4.856 0 37.976-30.782 68.758-68.758 68.758-1.734 0-2.947 0-3.556-0.088-1.215-0.088-2.341-0.173-3.468-0.261l-16.993-1.734v17.081c0 77.948 0 155.984 0 233.933v17.081l16.993-1.734c1.127-0.088 2.253-0.173 3.468-0.261 0.606 0 1.821-0.088 3.556-0.088 37.976 0 68.758 30.782 68.758 68.758 0 1.908-0.088 3.468-0.173 4.856-0.088 1.648-0.261 3.296-0.521 4.768l-2.427 17.602h17.775zM837.842 480.688c18.036 0 32.687-14.653 32.687-32.687s-14.653-32.687-32.687-32.687-32.687 14.653-32.687 32.687c0 18.036 14.653 32.687 32.687 32.687zM186.157 480.688c18.036 0 32.687-14.653 32.687-32.687s-14.653-32.687-32.687-32.687c-18.036 0-32.687 14.653-32.687 32.687-0.088 18.036 14.567 32.687 32.687 32.687zM15.433 738.119h1008.567v-580.237h-1024v580.237h15.433z" />
<glyph unicode="&#xe906;" glyph-name="home" d="M426 106h-212v342h-128l426 384 426-384h-128v-342h-212v256h-172v-256z" />
<glyph unicode="&#xe907;" glyph-name="settings" d="M512 298q62 0 106 44t44 106-44 106-106 44-106-44-44-106 44-106 106-44zM830 406l90-70q14-10 4-28l-86-148q-8-14-26-8l-106 42q-42-30-72-42l-16-112q-4-18-20-18h-172q-16 0-20 18l-16 112q-38 16-72 42l-106-42q-18-6-26 8l-86 148q-10 18 4 28l90 70q-2 14-2 42t2 42l-90 70q-14 10-4 28l86 148q8 14 26 8l106-42q42 30 72 42l16 112q4 18 20 18h172q16 0 20-18l16-112q38-16 72-42l106 42q18 6 26-8l86-148q10-18-4-28l-90-70q2-14 2-42t-2-42z" />
<glyph unicode="&#xe908;" glyph-name="logout" d="M170 746v-596h342v-86h-342q-34 0-59 26t-25 60v596q0 34 25 60t59 26h342v-86h-342zM726 662l212-214-212-214-60 62 110 110h-434v84h434l-110 112z" />
<glyph unicode="&#xe909;" glyph-name="clearclose" d="M810 686l-238-238 238-238-60-60-238 238-238-238-60 60 238 238-238 238 60 60 238-238 238 238z" />
<glyph unicode="&#xe90a;" glyph-name="pause" d="M598 746h170v-596h-170v596zM256 150v596h170v-596h-170z" />
<glyph unicode="&#xe90b;" glyph-name="play_arrow" d="M342 746l468-298-468-298v596z" />
<glyph unicode="&#xe90c;" glyph-name="chat" d="M768 618v86h-512v-86h512zM598 362v86h-342v-86h342zM256 576v-86h512v86h-512zM854 874q34 0 59-25t25-59v-512q0-34-25-60t-59-26h-598l-170-170v768q0 34 25 59t59 25h684z" />
<glyph unicode="&#xe90d;" glyph-name="emoji_emotions" d="M662 490q26 0 45 19t19 45-19 45-45 19-45-19-19-45 19-45 45-19zM512 192q72 0 130 47t84 123h-428q26-76 84-123t130-47zM362 618q-26 0-45-19t-19-45 19-45 45-19 45 19 19 45-19 45-45 19zM512 874q176 0 301-125t125-301-125-301-301-125-301 125-125 301 125 301 301 125z" />
<glyph unicode="&#xe90e;" glyph-name="historyrestore" d="M512 618h64v-180l150-90-32-52-182 110v212zM554 832q158 0 271-112t113-272-113-272-271-112q-66 0-145 33t-125 79l60 62q88-88 210-88 124 0 212 87t88 211-88 211-212 87-211-87-87-211h128l-172-172-4 6-166 166h128q0 160 113 272t271 112z" />
<glyph unicode="&#xe90f;" glyph-name="apps" d="M682 106v172h172v-172h-172zM682 362v172h172v-172h-172zM426 618v172h172v-172h-172zM682 790h172v-172h-172v172zM426 362v172h172v-172h-172zM170 362v172h172v-172h-172zM170 106v172h172v-172h-172zM426 106v172h172v-172h-172zM170 618v172h172v-172h-172z" />
<glyph unicode="&#xe910;" glyph-name="monetization_on" d="M572 188q134 26 134 134 0 122-180 168-112 28-112 82 0 30 27 50t75 20q90 0 94-80h84q-4 114-122 144v84h-114v-84q-58-12-95-47t-37-89q0-112 178-156 114-26 114-92 0-26-23-47t-79-21q-106 0-114 80h-84q6-114 140-144v-84h114v82zM512 874q176 0 301-125t125-301-125-301-301-125-301 125-125 301 125 301 301 125z" />
<glyph unicode="&#xe911;" glyph-name="backspace-solid" d="M921.602 755.198h-593.179c-0.006 0-0.014 0-0.021 0-28.274 0-53.871-11.465-72.395-29.999l-241.007-240.991c-20-20-20-52.416 0-72.399l241.006-241.006c19.2-19.2 45.248-30 72.399-30h593.195c56.56 0 102.399 45.84 102.399 102.399v409.597c0 56.56-45.84 102.399-102.399 102.399zM786.099 348.705c10-10 10-26.208 0-36.208l-36.192-36.192c-10-10-26.208-10-36.208 0l-99.295 99.295-99.295-99.295c-10-10-26.208-10-36.208 0l-36.192 36.192c-10 10-10 26.208 0 36.208l99.295 99.295-99.295 99.295c-10 10-10 26.208 0 36.208l36.192 36.192c10 10 26.208 10 36.208 0l99.295-99.295 99.295 99.295c10 10 26.208 10 36.208 0l36.192-36.192c10-10 10-26.208 0-36.208l-99.295-99.295 99.295-99.295z" />
<glyph unicode="&#xe912;" glyph-name="smartphone" d="M957.099 646.656l-246.485 246.485c-35.584 35.584-97.621 31.445-138.325-9.216l-496.171-496.299c-40.661-40.661-44.8-102.699-9.216-138.325l246.443-246.443c35.584-35.584 97.621-31.445 138.325 9.216l496.256 496.256c40.661 40.704 44.8 102.741 9.173 138.325zM894.251 548.608l-482.859-482.859c-14.805-14.805-37.333-16.299-50.304-3.371l-234.709 234.709c-12.971 12.971-11.477 35.499 3.371 50.304l482.859 482.859c14.805 14.805 37.333 16.299 50.304 3.371l11.733-11.733c12.971-12.971 11.477-35.499-3.371-50.304-14.805-14.805-16.299-37.333-3.371-50.304l117.376-117.376c12.971-12.971 35.499-11.477 50.304 3.371 14.805 14.805 37.333 16.299 50.304 3.371l11.733-11.733c12.928-12.971 11.435-35.499-3.371-50.304zM590.336-64c-14.336 0-27.349 8.619-32.939 21.888-5.589 13.355-2.56 28.757 7.68 38.997l101.547 101.547c7.125 7.125 16.981 10.965 27.008 10.411 10.069-0.512 19.499-5.248 25.856-13.056l37.632-46.037c115.072 61.141 194.347 181.973 195.456 320.171 0.171 19.627 16.085 35.413 35.669 35.413h0.299c19.712-0.171 35.541-16.256 35.413-35.968-1.835-237.056-196.267-431.488-433.323-433.365-0.085 0-0.171 0-0.299 0zM433.664 960c14.336 0 27.349-8.619 32.939-21.888 5.589-13.355 2.56-28.757-7.68-38.997l-101.547-101.547c-7.168-7.125-17.024-11.008-27.051-10.411-10.069 0.512-19.499 5.248-25.856 13.056l-37.632 46.037c-115.072-61.141-194.347-181.973-195.456-320.171-0.171-19.627-16.128-35.413-35.712-35.413-0.085 0-0.171 0-0.299 0-19.669 0.171-35.499 16.256-35.371 35.968 1.877 237.056 196.309 431.488 433.365 433.365z" />
<glyph unicode="&#xe913;" glyph-name="cross" d="M940.139-29.368c-46.177-46.177-121.004-46.177-167.081 0l-261.009 298.325-261.009-298.227c-46.177-46.177-121.004-46.177-167.081 0-46.177 46.177-46.177 121.004 0 167.081l271.545 310.14-271.643 310.336c-46.177 46.177-46.177 120.906 0 167.081s120.906 46.177 167.081 0l261.107-298.423 261.009 298.423c46.177 46.177 120.906 46.177 167.081 0s46.177-121.004 0-167.081l-271.545-310.336 271.545-310.14c46.177-46.177 46.177-121.004 0-167.181z" />
<glyph unicode="&#xe914;" glyph-name="menu" d="M980.113 521.143h-936.227c-40.374 0-43.886-32.694-43.886-73.143s3.511-73.143 43.886-73.143h936.227c40.374 0 43.886 32.694 43.886 73.143s-3.511 73.143-43.886 73.143zM980.113 228.571h-936.227c-40.374 0-43.886-32.694-43.886-73.143s3.511-73.143 43.886-73.143h936.227c40.374 0 43.886 32.694 43.886 73.143s-3.511 73.143-43.886 73.143zM43.887 667.429h936.227c40.374 0 43.886 32.694 43.886 73.143s-3.511 73.143-43.886 73.143h-936.227c-40.374 0-43.886-32.694-43.886-73.143s3.511-73.143 43.886-73.143z" />
<glyph unicode="&#xe915;" glyph-name="cross1" d="M940.139-29.368c-46.177-46.177-121.004-46.177-167.081 0l-261.009 298.325-261.009-298.227c-46.177-46.177-121.004-46.177-167.081 0-46.177 46.177-46.177 121.004 0 167.081l271.545 310.14-271.643 310.336c-46.177 46.177-46.177 120.906 0 167.081s120.906 46.177 167.081 0l261.107-298.423 261.009 298.423c46.177 46.177 120.906 46.177 167.081 0s46.177-121.004 0-167.081l-271.545-310.336 271.545-310.14c46.177-46.177 46.177-121.004 0-167.181z" />
<glyph unicode="&#xe916;" glyph-name="casino" horiz-adv-x="989" d="M494.345-53.035c-271.456 0-492.61 220.721-492.61 492.61s221.154 492.177 492.61 492.177c271.456 0 492.61-220.721 492.61-492.61s-220.721-492.177-492.61-492.177zM494.345 885.353c-245.872 0-445.778-199.906-445.778-445.778s199.906-445.778 445.778-445.778c245.872 0 445.778 199.906 445.778 445.778s-199.906 445.778-445.778 445.778zM494.345 111.313c-180.826 0-327.829 147.003-327.829 327.829s147.003 327.829 327.829 327.829c180.826 0 327.83-147.003 327.83-327.829 0.433-180.392-146.57-327.829-327.83-327.829zM494.345 720.571c-155.242 0-281.43-126.188-281.43-281.43s126.188-281.43 281.43-281.43c155.242 0 281.43 126.188 281.43 281.43s-126.188 281.43-281.43 281.43zM471.362 908.335h46.833v-148.303h-46.833v148.303zM280.142 857.476l74.152-128.431-40.557-23.416-74.152 128.431 40.557 23.416zM99.97 694.228l128.431-74.152-23.416-40.557-128.431 74.152 23.416 40.557zM25.585 462.991h148.303v-46.833h-148.303v46.833zM204.936 299.336l23.416-40.557-128.431-74.152-23.416 40.557 128.431 74.152zM313.69 173.444l40.557-23.416-74.152-128.431-40.557 23.416 74.152 128.431zM471.362 118.685h46.833v-148.303h-46.833v148.303zM675.221 173.445l74.152-128.431-40.557-23.416-74.152 128.431 40.557 23.416zM783.737 299.281l128.431-74.152-23.416-40.557-128.431 74.152 23.416 40.557zM815.235 462.991h148.303v-46.833h-148.303v46.833zM888.963 694.428l23.416-40.557-128.431-74.152-23.416 40.557 128.431 74.152zM708.666 857.244l40.557-23.416-74.152-128.431-40.557 23.416 74.152 128.431zM494.345 618.667c-29.921-62.877-67.214-119.25-113.179-167.383 49.434-41.195 86.294-95.834 113.179-160.879 29.921 64.612 66.78 119.683 112.312 160.879-45.965 44.231-82.824 101.471-112.312 167.383z" />
<glyph unicode="&#xe917;" glyph-name="liveCasino" d="M494.743 960c273.067 0 494.743-221.676 494.743-494.743s-222.112-494.743-494.743-494.743c-272.631 0-494.743 221.676-494.743 494.743 0 272.631 221.676 494.743 494.743 494.743zM678.256 147.323c-54.013-31.285-116.701-49.204-183.513-49.204v-81.005c81.561 0 158.085 21.903 224.003 60.137l-40.49 70.072zM176.809 281.744l-69.932-40.415c39.303-67.965 95.954-124.689 163.863-164.078l40.49 70.072c-55.693 32.258-102.162 78.728-134.421 134.421zM494.743 784.924c-176.383 0-320.102-143.719-320.102-320.102s143.719-320.102 320.102-320.102c176.383 0 320.102 143.719 320.102 320.102 0 176.818-143.719 320.102-320.102 320.102zM942.446 465.262l-80.565-0.005c0-66.812-17.918-129.5-49.204-183.513l69.932-40.415c38.052 65.802 59.841 142.142 59.841 223.492l-0.004 0.44zM47.036 465.26l80.57-0.003c0 66.677 17.846 129.246 49.013 183.184l-69.552 40.201c-38.101-65.758-59.953-142.061-60.031-223.382zM718.563 852.498l-40.125-69.413c55.624-32.261 102.035-78.704 134.259-134.351l69.531 40.236c-39.323 67.735-95.894 124.261-163.665 163.528zM494.743 912.529c-81.486 0-157.944-21.862-223.82-60.031l40.125-69.413c54.054 31.351 116.808 49.309 183.696 49.309v80.134zM496.92 311.412c25.255 0 45.729-20.474 45.729-45.729s-20.474-45.729-45.729-45.729c-25.255 0-45.729 20.474-45.729 45.729s20.474 45.729 45.729 45.729zM305.295 503.038c25.255 0 45.729-20.474 45.729-45.729s-20.474-45.729-45.729-45.729c-25.255 0-45.729 20.474-45.729 45.729s20.474 45.729 45.729 45.729zM688.546 503.038c25.255 0 45.729-20.474 45.729-45.729s-20.474-45.729-45.729-45.729c-25.255 0-45.729 20.474-45.729 45.729s20.474 45.729 45.729 45.729zM496.92 694.228c25.255 0 45.729-20.474 45.729-45.729s-20.474-45.729-45.729-45.729c-25.255 0-45.729 20.474-45.729 45.729s20.474 45.729 45.729 45.729zM520.438 635.434l-0.024-154.587 154.631-0.020v-47.035l-154.631 0.024 0.024-154.631h-47.035l-0.020 154.631-154.587-0.024v47.035l154.587 0.020 0.020 154.587h47.035z" />
<glyph unicode="&#xe918;" glyph-name="betting" d="M512-64c141.128 0 261.744 50.051 361.846 150.154s150.154 220.718 150.154 361.846c0 141.128-50.051 261.744-150.154 361.846s-220.718 150.154-361.846 150.154c-141.128 0-261.744-50.051-361.846-150.154s-150.154-220.718-150.154-361.846c0-141.128 50.051-261.744 150.154-361.846s220.718-150.154 361.846-150.154zM315.077 499.692l-120.615 56.615-12.308 4.923-54.154 157.538c54.154 77.128 128 133.744 221.538 169.846v0l140.308-98.462v-142.769l-174.769-147.692zM706.462 499.692l-174.769 147.692v142.769l142.769 98.462c90.256-32.821 164.103-89.436 221.538-169.846v0l-56.615-160-132.923-59.077zM297.846 177.231l-172.308 2.462c-47.59 67.282-74.667 142.769-81.231 226.462v0l132.923 113.231 120.615-54.154 2.462-2.462 49.231-189.538-51.692-96zM726.154 177.231l-51.692 96 49.231 189.538 123.077 56.615 132.923-113.231c-6.564-83.692-33.641-159.179-81.231-226.462v0l-172.308-2.462zM504.615-22.154c-29.538 0-60.718 4.103-93.538 12.308-1.641 0-4.513 0.821-8.615 2.462s-6.974 2.462-8.615 2.462v0l-61.538 160 49.231 96h260.923v-2.462l49.231-96-59.077-157.538c-3.282 0-6.564-0.821-9.846-2.462l-3.282-1.368c-2.188-0.729-4.376-1.094-6.564-1.094-37.744-8.205-73.846-12.308-108.308-12.308z" />
<glyph unicode="&#xe919;" glyph-name="virtualSport" horiz-adv-x="1930" d="M852.641 391.314c-8.788 28.169-9.902 43.288 7.59 52.121 2.077 1.057 10.169-4.54 11.561-8.455 7.418-20.879-16.549-19.746-19.151-43.666zM1875.444 769.155c22.212 3.473 33.784 11.151 51.125 41.746 17.641 31.081-40.752 21.45-60.802 24.286-48.085 6.794-90.903 22.464-133.005 47.861-55.107 33.216-116.487 30.552-173.179 2.319-34.854-17.363-69.944-29.582-106.853-21.698-26.986 5.748-48.288 8.865-52.624-10.375-5.855-26.033 24.096-38.231 40.56-48.001-98.365-92.023-152.605-126.36-225.739-148.414-56.306-16.964-101.64-8.52-142.221 39.158-41.523 48.788-72.095 105.644-118.254 150.981-177.418 174.275-405.126 144.262-529.514-71.554-15.029-26.077-26.708-54.094-40.603-80.85-31.343-60.36-66.379-118.132-121.347-160.223-89.159-68.287-165.729-54.774-227.43 39.287-6.241 9.533-13.969 23.629-27.564 18.053-13.755-5.64-7.183-25.699 0.546-36.171 148.933-201.819 309.887-20.005 355.874 49.166 31.257 46.987 65.159 102.117 86.226 138.644 13.991 24.232 35.24 46.297 35.24 46.297s2.751-35.049 4.207-47.958c7.739-68.47 44.242-124.204 106.050-153.181 51.543-24.168 79.257-60.403 95.228-113.031 17.898-59.055 19.793-60.738-40.817-58.796-25.894 0.841-39.575-13.319-41.577-31.145-2.409-21.493 19.129-32.903 38.365-34.542 22.565-1.93 46.201-2.373 67.792 8.487 9.484 4.767 18.037 2.114 21.977-7.053 5.427-12.575-4.721-14.257-13.595-15.562-57.773-8.52-114.978-42.976-173.896-6.341-25.873 16.090-45.248-0.884-52.966-17.19-10.373-21.935 7.193-41.293 29.309-46.987 33.794-8.692 66.786-21.429 103.856-14.591 41.652 7.657 84.149 12.488 126.314 15.54 32.638 2.351 41.48-13.578 57.066-29.28 6.316-6.363 14.762-14.753 14.762-14.753s-57.302-95.431-72.053-118.466c-39.436-61.654 13.37-107.596 28.571-158.379 5.127-17.147 105.858-10.547 106.318 1.078 0.739 18.635-10.148 25.16-26.333 26.077-32.563 1.855-40.196 25.969-50.044 51.689-20.36 53.124 28.389 69.441 49.048 100.801 8.778 13.351 21.923 32.234 21.923 32.234s21.837-19.293 30.005-32.17c10.458-16.446 15.297-37.788 30.733-39.46 27.457-2.966 111.060-12.078 112.666 9.134 1.188 15.831-5.16 25.451-17.406 30.196-18.101 7.010-40.495 8.832-57.334 18.172-23.796 13.2-50.708 91.419-50.708 91.419s50.023 17.481 70.747 19.509c45.484 4.465 90.25 15.799 136.537 16.295 52.089 0.561 94.982 22.852 131.923 59.594 88.292 87.828 182.246 170.447 264.864 263.322 79.15 88.993 150.368 133.025 271.383 123.406 35.957-2.858 41.823-1.488 55.054 1.521 21.42 4.885 46.415 42.749 28.303 42.016-35.561-4.982-130.585-16.543-137.683-0.421-1.113 1.456-0.321 8.185 2.323 9.005 39.735 12.176 84.256-6.082 118.65-0.701z" />
<glyph unicode="&#xe91a;" glyph-name="bang" horiz-adv-x="256" d="M140.8 234.24h-25.6l-61.44 556.8c-2.56 23.040-2.56 40.96-2.56 53.76 0 25.6 6.4 52.48 20.48 70.4 17.92 16.64 34.56 25.6 56.32 25.6s38.4-8.96 56.32-25.6c14.080-17.92 20.48-44.8 20.48-70.4 0-12.8 0-30.72-2.56-53.76zM128 140.8c42.415 0 76.8-34.385 76.8-76.8s-34.385-76.8-76.8-76.8v0c-42.415 0-76.8 34.385-76.8 76.8s34.385 76.8 76.8 76.8v0z" />
<glyph unicode="&#xe91b;" glyph-name="Send" horiz-adv-x="1170" d="M31.305-21.943l1088 466.286-1088 466.286v-361.838l777.143-104.448-777.143-104.448z" />
<glyph unicode="&#xe91c;" glyph-name="bubbles" horiz-adv-x="1152" d="M672 960v0c-265.096 0-480-173.914-480-388.448s214.904-388.448 480-388.448c25.458 0 50.446 1.62 74.834 4.71 103.106-102.694 222.172-121.108 341.166-123.814v25.134c-64.252 31.354-116 88.466-116 153.734 0 9.106 0.712 18.048 2.030 26.794 108.558 71.214 177.97 179.988 177.97 301.89 0 214.534-214.904 388.448-480 388.448zM156 89.314c0-55.942-36.314-104.898-92-131.772v-21.542c103.126 2.318 197.786 18.102 287.142 106.126 21.14-2.65 42.794-4.040 64.858-4.040 95.47 0 183.408 25.758 253.614 69.040-144.674 0.506-281.26 46.854-384.834 130.672-52.208 42.252-93.394 91.826-122.414 147.348-30.766 58.866-46.366 121.582-46.366 186.406 0 10.448 0.45 20.836 1.258 31.168-72.57-59.934-117.258-141.622-117.258-231.676 0-104.488 60.158-197.722 154.24-258.764 1.142-7.496 1.76-15.16 1.76-22.966z" />
<glyph unicode="&#xe91d;" glyph-name="refresh" horiz-adv-x="956" d="M151.772 540.648c9.143 0 15.238 5.486 18.286 14.019 10.362 24.381 17.676 47.543 32.305 71.314 56.686 92.648 157.257 148.724 265.753 148.724 78.629 0 154.819-29.867 212.724-83.505l-84.114-84.114c-7.314-7.314-11.581-17.067-11.581-27.429 0-21.333 17.676-39.010 39.010-39.010h273.067c21.333 0 39.010 17.676 39.010 39.010v273.067c0 21.333-17.676 39.010-39.010 39.010-10.362 0-20.114-4.267-27.429-11.581l-79.238-78.629c-86.552 81.676-202.972 129.219-322.438 129.219-224.915 0-404.724-149.943-457.143-366.324v-4.267c0-10.362 8.533-19.505 19.505-19.505h121.295zM465.677-5.486c224.915 0 402.896 150.553 454.705 366.324 0.61 1.219 0.61 3.048 0.61 4.267 0 10.362-8.533 19.505-19.505 19.505h-117.029c-9.143 0-15.238-5.486-18.286-14.019-10.362-24.381-17.676-47.543-32.305-71.314-56.686-92.648-157.257-148.724-265.753-148.724-78.629 0-154.819 30.476-212.115 84.114l83.505 83.505c7.314 7.314 11.581 17.067 11.581 27.429 0 21.333-17.676 39.010-39.010 39.010h-273.067c-21.333 0-39.010-17.676-39.010-39.010v-273.067c0-21.333 17.676-39.010 39.010-39.010 10.362 0 20.114 4.267 27.429 11.581l78.629 78.629c86.552-82.286 201.753-129.219 320.61-129.219z" />
<glyph unicode="&#xe91e;" glyph-name="live_chat" horiz-adv-x="951" d="M768 118.857v146.286h38.857c39.619 0 73.524 13.333 101.714 40s42.286 59.048 42.286 97.143v0 384c0 38.095-14.095 70.476-42.286 97.143s-62.095 40-101.714 40v0h-496c-39.619 0-70.857-12.952-93.714-38.857s-34.286-58.667-34.286-98.286v0-384c0-38.095 14.095-70.476 42.286-97.143s62.095-40 101.714-40v0h230.857c19.81 0 32.762-3.048 38.857-9.143v0l171.429-137.143zM146.286-27.429l121.143 102.857c9.143 4.571 19.048 6.857 29.714 6.857v0h205.714c28.952 0 54.857 6.476 77.714 19.429s36.571 30.857 41.143 53.714v0l-59.429 41.143c-12.19 7.619-25.143 11.429-38.857 11.429v0h-267.429c-39.619 0-73.905 12.952-102.857 38.857s-43.429 57.905-43.429 96v0 230.857h-4.571c-28.952 0-53.714-9.905-74.286-29.714s-30.857-44.19-30.857-73.143v0-294.857c0-27.429 10.667-49.905 32-67.429s47.238-26.286 77.714-26.286v0h36.571v-109.714z" />
<glyph unicode="&#xe91f;" glyph-name="timer" horiz-adv-x="931" d="M453.818-5.818c125.091 0 232 44.364 320.727 133.091s133.091 195.636 133.091 320.727c0 125.091-44.364 232-133.091 320.727s-195.636 133.091-320.727 133.091v0-244.364h34.909v207.273c107.636-8.727 198.182-53.091 271.636-133.091s110.182-174.545 110.182-283.636c0-116.364-40.364-214.909-121.091-295.636s-179.273-121.091-295.636-121.091c-116.364 0-214.909 40.364-295.636 121.091s-121.091 179.273-121.091 295.636c0 114.909 40.727 213.091 122.182 294.545v0l-26.182 26.182c-88.727-88.727-133.091-195.636-133.091-320.727s44.364-232 133.091-320.727c88.727-88.727 195.636-133.091 320.727-133.091zM453.818 393.455c14.545 0 27.273 5.455 38.182 16.364s16.364 23.636 16.364 38.182c0 14.545-5.818 27.636-17.455 39.273-1.455 0-2.182 1.455-2.182 4.364v0l-2.182 2.182-63.273 45.818c-43.636 32-87.636 63.636-132 94.909s-67.273 46.182-68.727 44.727c-1.455-1.455 6.909-14.909 25.091-40.364s41.091-57.091 68.727-94.909c27.636-37.818 48-65.818 61.091-84s24-32.364 32.727-42.545v0l2.182-4.364c10.182-13.091 24-19.636 41.455-19.636z" />
<glyph unicode="&#xe920;" glyph-name="voucher" d="M896-11.667c18 0 33.167 6.333 45.5 19s18.5 27.667 18.5 45v417h64v192c0 17.333-6.167 32.333-18.5 45s-27.5 19-45.5 19h-109c14 13.333 25.167 29.167 33.5 47.5s12.5 38.833 12.5 61.5c0 28-9 54.333-27 79s-49.333 37-94 37c-29.333 0-57.333-7-84-21s-51.333-31-74-51c-22.667-20-42.833-41.167-60.5-63.5s-32.167-42.5-43.5-60.5c-11.333 18-26 38.167-44 60.5s-38.5 43.5-61.5 63.5c-23 20-48 37-75 51s-55.167 21-84.5 21c-44.667 0-76-12.333-94-37s-27-51-27-79c0-22.667 4.167-43.167 12.5-61.5s19.833-34.5 34.5-48.5h-111c-18 0-33.167-6.167-45.5-18.5s-18.5-27.5-18.5-45.5v-191h65v-417c0-17.333 6.167-32.333 18.5-45s27.5-19 45.5-19h767zM679 725.333h-108c22.667 33.333 52.5 68.5 89.5 105.5s75.5 55.5 115.5 55.5c20 0 34.5-4.333 43.5-13s13.5-21.667 13.5-39c0-35.333-16.333-62.333-49-81s-67.667-28-105-28zM457 725.333h-108c-37.333 0-72.833 9.5-106.5 28.5s-50.5 46.167-50.5 81.5c0 17.333 4.5 30.167 13.5 38.5s23.5 12.5 43.5 12.5c40 0 79-18.5 117-55.5s68.333-72.167 91-105.5zM960 533.333h-416v128h416v-128zM480 533.333h-416v128h416v-128zM480 52.333h-351v417h351v-417zM896 52.333h-352v417h352v-417z" />
<glyph unicode="&#xe921;" glyph-name="cherry" horiz-adv-x="1067" d="M695.759 960l16.659-49.785c-51.075-17.127-97.858-40.262-140.231-69.266l2.549 9.232c-34.298-117.14-11.759-217.197 66.636-296.755 49.299-49.914 105.596-76.257 124.367-83.959 16.579 3.54 33.841 5.378 51.533 5.378 137.682 0 249.395-111.283 249.395-248.435s-111.713-248.435-249.395-248.435c-137.682 0-249.395 111.283-249.395 248.435 0 93.995 52.47 175.839 129.809 218.040-27.766 16.010-62.090 39.595-94.041 71.882-54.273 54.889-109.597 143.977-95.178 273.46-51.797-48.362-95.152-107.772-129.719-177.795-39.351-79.439-55.931-152.221-62.231-188.032 105.626-28.847 183.254-125.2 183.254-239.529 0-137.152-112.203-248.435-249.395-248.435-137.682 0-249.395 111.283-249.395 248.435s111.713 248.435 249.395 248.435c4.759 0 9.486-0.133 14.179-0.395 6.786 38.654 24.306 115.494 66.176 200.998 14.528 29.764 30.744 57.915 48.554 84.369-310.391-61.307-379.284 217.267-379.284 217.267 263.852 20.040 371.299-121.504 404.832-181.954 75.15 97.146 173.953 167.769 290.926 206.846zM250.375 380.156c-108.284 0-196.478-87.855-196.478-195.722s88.195-195.722 196.478-195.722c108.284 0 196.478 87.855 196.478 195.722s-88.195 195.722-196.478 195.722zM817.271 422.132c-108.284 0-196.478-87.855-196.478-195.722s88.195-195.722 196.478-195.722c108.284 0 196.48 87.855 196.48 195.722 0.488 107.867-87.707 195.722-196.48 195.722z" />
<glyph unicode="&#xe922;" glyph-name="control-next" horiz-adv-x="559" d="M26.782 865.97c16.157 16.157 41.238 17.953 59.379 5.386l6.446-5.386 456.053-456.053-456.053-456.053c-18.177-18.177-47.648-18.177-65.825 0-16.157 16.157-17.953 41.238-5.386 59.379l5.386 6.446 390.162 390.236-390.162 390.219c-16.157 16.157-17.953 41.238-5.386 59.379l5.386 6.446z" />
<glyph unicode="&#xe923;" glyph-name="control-prev" horiz-adv-x="559" d="M532.218 865.97c-16.157 16.157-41.238 17.953-59.379 5.386l-6.446-5.386-456.053-456.053 456.053-456.053c18.177-18.177 47.648-18.177 65.825 0 16.157 16.157 17.953 41.238 5.386 59.379l-5.386 6.446-390.162 390.236 390.162 390.219c16.157 16.157 17.953 41.238 5.386 59.379l-5.386 6.446z" />
<glyph unicode="&#xe924;" glyph-name="betslip" horiz-adv-x="1536" d="M161.803-23.022l1213.061 0.668c65.499 0 120.304 54.805 120.972 120.972l-0.668 167.757c-100.253 0-181.792 81.539-181.792 181.792s81.539 181.792 181.792 181.792v167.088c0 66.835-54.805 121.64-120.972 120.972l-1211.725 0.668c-66.835 0-121.64-54.805-120.972-120.972l-0.668-167.757c100.253 0 181.792-81.539 181.792-181.792s-81.539-181.792-181.792-181.792v-168.425c0-65.499 54.805-120.304 120.972-120.972zM312.851 164.117c-11.362 11.362-18.046 26.066-18.046 42.106v483.888c0 33.418 26.734 60.152 60.152 60.152h826.085c32.081 0 60.152-28.071 60.152-60.152v-483.888c0-33.418-26.734-60.152-60.152-60.152h-826.085c-16.040 0-30.744 6.684-42.106 18.046zM385.702 236.967h764.596v422.399h-764.596v-422.399z" />
<glyph unicode="&#xe925;" glyph-name="esports" horiz-adv-x="1975" d="M1448.229-64c291.086 0 526.629 229 526.629 512s-235.543 512-526.629 512h-921.6c-291.086 0-526.629-229-526.629-512s235.543-512 526.629-512c133.714 0 255.086 49 347.657 128h226.286c92.571-79 213.943-128 347.657-128zM592.457 128h-131.657c-18.514 0-32.914 14-32.914 32v192h-197.486c-18.514 0-32.914 14-32.914 32v128c0 18 14.4 32 32.914 32h197.486v192c0 18 14.4 32 32.914 32h131.657c18.514 0 32.914-14 32.914-32v-192h197.486c18.514 0 32.914-14 32.914-32v-128c0-18-14.4-32-32.914-32h-197.486v-192c0-18-14.4-32-32.914-32zM1579.886 448c-73.029 0-131.657 57-131.657 128s58.629 128 131.657 128c73.029 0 131.657-57 131.657-128s-58.629-128-131.657-128zM1316.571 192c-73.029 0-131.657 57-131.657 128s58.629 128 131.657 128c73.029 0 131.657-57 131.657-128s-58.629-128-131.657-128z" />
<glyph unicode="&#xe926;" glyph-name="liveSports" d="M512-64c141.128 0 261.744 50.051 361.846 150.154s150.154 220.718 150.154 361.846c0 141.128-50.051 261.744-150.154 361.846s-220.718 150.154-361.846 150.154c-141.128 0-261.744-50.051-361.846-150.154s-150.154-220.718-150.154-361.846c0-141.128 50.051-261.744 150.154-361.846s220.718-150.154 361.846-150.154zM315.077 499.692l-120.615 56.615-12.308 4.923-54.154 157.538c54.154 77.128 128 133.744 221.538 169.846v0l140.308-98.462v-142.769l-174.769-147.692zM706.462 499.692l-174.769 147.692v142.769l142.769 98.462c90.256-32.821 164.103-89.436 221.538-169.846v0l-56.615-160-132.923-59.077zM297.846 177.231l-172.308 2.462c-47.59 67.282-74.667 142.769-81.231 226.462v0l132.923 113.231 120.615-54.154 2.462-2.462 49.231-189.538-51.692-96zM726.154 177.231l-51.692 96 49.231 189.538 123.077 56.615 132.923-113.231c-6.564-83.692-33.641-159.179-81.231-226.462v0l-172.308-2.462zM504.615-22.154c-29.538 0-60.718 4.103-93.538 12.308-1.641 0-4.513 0.821-8.615 2.462s-6.974 2.462-8.615 2.462v0l-61.538 160 49.231 96h260.923v-2.462l49.231-96-59.077-157.538c-3.282 0-6.564-0.821-9.846-2.462l-3.282-1.368c-2.188-0.729-4.376-1.094-6.564-1.094-37.744-8.205-73.846-12.308-108.308-12.308z" />
<glyph unicode="&#xe927;" glyph-name="canli-spor" d="M512-64c141.128 0 261.744 50.051 361.846 150.154s150.154 220.718 150.154 361.846c0 141.128-50.051 261.744-150.154 361.846s-220.718 150.154-361.846 150.154c-141.128 0-261.744-50.051-361.846-150.154s-150.154-220.718-150.154-361.846c0-141.128 50.051-261.744 150.154-361.846s220.718-150.154 361.846-150.154zM315.077 499.692l-120.615 56.615-12.308 4.923-54.154 157.538c54.154 77.128 128 133.744 221.538 169.846v0l140.308-98.462v-142.769l-174.769-147.692zM706.462 499.692l-174.769 147.692v142.769l142.769 98.462c90.256-32.821 164.103-89.436 221.538-169.846v0l-56.615-160-132.923-59.077zM297.846 177.231l-172.308 2.462c-47.59 67.282-74.667 142.769-81.231 226.462v0l132.923 113.231 120.615-54.154 2.462-2.462 49.231-189.538-51.692-96zM726.154 177.231l-51.692 96 49.231 189.538 123.077 56.615 132.923-113.231c-6.564-83.692-33.641-159.179-81.231-226.462v0l-172.308-2.462zM504.615-22.154c-29.538 0-60.718 4.103-93.538 12.308-1.641 0-4.513 0.821-8.615 2.462s-6.974 2.462-8.615 2.462v0l-61.538 160 49.231 96h260.923v-2.462l49.231-96-59.077-157.538c-3.282 0-6.564-0.821-9.846-2.462l-3.282-1.368c-2.188-0.729-4.376-1.094-6.564-1.094-37.744-8.205-73.846-12.308-108.308-12.308z" />
<glyph unicode="&#xe928;" glyph-name="espor" horiz-adv-x="1975" d="M1448.229-64c291.086 0 526.629 229 526.629 512s-235.543 512-526.629 512h-921.6c-291.086 0-526.629-229-526.629-512s235.543-512 526.629-512c133.714 0 255.086 49 347.657 128h226.286c92.571-79 213.943-128 347.657-128zM592.457 128h-131.657c-18.514 0-32.914 14-32.914 32v192h-197.486c-18.514 0-32.914 14-32.914 32v128c0 18 14.4 32 32.914 32h197.486v192c0 18 14.4 32 32.914 32h131.657c18.514 0 32.914-14 32.914-32v-192h197.486c18.514 0 32.914-14 32.914-32v-128c0-18-14.4-32-32.914-32h-197.486v-192c0-18-14.4-32-32.914-32zM1579.886 448c-73.029 0-131.657 57-131.657 128s58.629 128 131.657 128c73.029 0 131.657-57 131.657-128s-58.629-128-131.657-128zM1316.571 192c-73.029 0-131.657 57-131.657 128s58.629 128 131.657 128c73.029 0 131.657-57 131.657-128s-58.629-128-131.657-128z" />
<glyph unicode="&#xe929;" glyph-name="poker" horiz-adv-x="985" d="M708.923 832.67l185.698-49.152c60.803-16.103 97.911-76.884 85.547-137.742l-1.579-6.76-161.201-609.162c-16.103-60.841-76.811-98.024-137.699-85.594l-6.764 1.587-380.731 100.785c-4.7 1.234-9.207 2.836-13.58 4.653l-6.466 2.869h279.237c3.335 0 6.529 0.438 9.724 0.869l4.809 0.588 127.094-33.634c19.529-5.157 39.568 5.376 46.808 23.651l1.438 4.351 161.162 609.241c5.157 19.456-5.274 39.489-23.629 46.73l-4.373 1.438-165.494 43.796v81.487zM551.385 960c65.221 0 118.154-52.933 118.154-118.154v0-630.154c0-65.221-52.933-118.154-118.154-118.154v0h-433.231c-65.221 0-118.154 52.933-118.154 118.154v0 630.154c0 65.221 52.933 118.154 118.154 118.154v0zM551.385 881.231h-433.231c-21.701 0-39.385-17.684-39.385-39.385v0-630.154c0-21.701 17.684-39.385 39.385-39.385v0h433.231c21.701 0 39.385 17.684 39.385 39.385v0 630.154c0 21.701-17.684 39.385-39.385 39.385v0zM146.393 329.846c1.733 0 2.993-0.433 3.938-1.103 0.945-0.709 1.694-1.93 2.284-3.86v0l6.38-21.701h35.407l5.868 21.15c0.591 1.851 1.182 3.308 1.89 4.175 0.67 0.866 2.048 1.339 4.096 1.339v0h22.055c1.3 0 2.048-0.433 2.284-1.103s0.236-1.694-0.197-3.151v0l-35.682-108.544c-0.67-1.654-1.26-3.033-2.048-3.938-0.788-0.945-2.402-1.418-4.884-1.418v0h-22.37c-2.363 0-3.978 0.473-4.766 1.3-0.827 0.866-1.536 2.127-2.127 3.781v0l-34.265 108.426c-0.67 2.048-0.67 3.269-0.236 3.82s1.378 0.827 2.678 0.827v0zM188.18 281.718h-23.079l5.317-19.85 5.868-21.583h0.827l5.75 21.74 5.317 19.692zM334.809 720.896c0 0 172.662-119.217 172.82-210.432 0-54.548-36.51-89.206-88.655-89.324-26.978 0-54.272 18.235-69.75 33.359 0 0 14.494-67.072 40.921-117.799 3.426-6.577-112.64-6.735-109.529-0.079 25.718 54.981 40.133 117.878 40.133 117.878-15.518-14.415-45.292-33.556-70.223-33.595-52.027-0.039-88.773 34.54-88.852 89.009-0.079 91.294 172.19 210.983 172.19 210.983h0.945zM793.868 687.248l2.055-0.42 21.622-5.829c2.363-0.591 3.82-1.457 4.372-2.599l0.556-1.895 0.35-2.398 6.223-114.215c0-1.497-0.236-2.481-0.63-3.072-0.263-0.446-0.735-0.665-1.395-0.656l-1.126 0.184-21.268 5.75c-2.009 0.551-3.19 1.339-3.663 2.402-0.289 0.656-0.508 1.575-0.621 2.687l-0.088 1.803-0.197 21.977-34.146 9.216-11.815-19.298c-1.063-1.694-2.166-2.678-3.23-3.072-0.735-0.315-1.575-0.438-2.544-0.356l-1.552 0.277-19.023 5.159c-1.3 0.354-2.087 0.827-2.363 1.457-0.21 0.473-0.14 1.12 0.292 2.048l0.929 1.615 61.361 95.705c0.945 1.418 1.969 2.442 3.033 3.111l1.215 0.42h1.653zM798.956 656.463l-11.303-19.259-10.319-17.841 22.252-6.026 0.039 20.441 0.118 22.449-0.788 0.236zM502.902 841.846c2.442 0 4.057-0.473 4.844-1.418s1.378-2.284 2.048-3.938v0l35.722-108.544c0.433-1.457 0.433-2.481 0.197-3.151s-1.024-1.103-2.324-1.103v0h-22.055c-2.009 0-3.426 0.473-4.096 1.378-0.709 0.827-1.3 2.284-1.89 4.135v0l-5.868 21.15h-35.367l-6.38-21.701c-0.591-1.93-1.378-3.151-2.284-3.86-0.985-0.67-2.245-1.103-3.978-1.103v0h-19.692c-1.3 0-2.245 0.236-2.718 0.788s-0.433 1.772 0.236 3.82v0l34.265 108.426c0.591 1.654 1.3 2.954 2.127 3.781 0.788 0.866 2.402 1.339 4.805 1.339v0zM492.15 813.253h-0.827l-5.868-21.583-5.317-19.85h23.079l-5.317 19.692-5.75 21.74z" />
<glyph unicode="&#xe92a;" glyph-name="promotion" d="M665.234 585.801l-153.234 310.548-153.307-310.548-342.661-49.794 247.941-241.753-58.498-341.293 306.525 161.215 306.525-161.215-58.571 341.293 248.014 241.753-342.734 49.794zM407.309 518.952l104.691 212.111 104.691-212.111 234.107-33.942-169.404-165.192 39.941-233.070-209.335 109.999-209.408-109.999 40.014 233.070-169.477 165.192 234.18 33.942z" />
<glyph unicode="&#xe92b;" glyph-name="spor" d="M512-64c141.128 0 261.744 50.051 361.846 150.154s150.154 220.718 150.154 361.846c0 141.128-50.051 261.744-150.154 361.846s-220.718 150.154-361.846 150.154c-141.128 0-261.744-50.051-361.846-150.154s-150.154-220.718-150.154-361.846c0-141.128 50.051-261.744 150.154-361.846s220.718-150.154 361.846-150.154zM315.077 499.692l-120.615 56.615-12.308 4.923-54.154 157.538c54.154 77.128 128 133.744 221.538 169.846v0l140.308-98.462v-142.769l-174.769-147.692zM706.462 499.692l-174.769 147.692v142.769l142.769 98.462c90.256-32.821 164.103-89.436 221.538-169.846v0l-56.615-160-132.923-59.077zM297.846 177.231l-172.308 2.462c-47.59 67.282-74.667 142.769-81.231 226.462v0l132.923 113.231 120.615-54.154 2.462-2.462 49.231-189.538-51.692-96zM726.154 177.231l-51.692 96 49.231 189.538 123.077 56.615 132.923-113.231c-6.564-83.692-33.641-159.179-81.231-226.462v0l-172.308-2.462zM504.615-22.154c-29.538 0-60.718 4.103-93.538 12.308-1.641 0-4.513 0.821-8.615 2.462s-6.974 2.462-8.615 2.462v0l-61.538 160 49.231 96h260.923v-2.462l49.231-96-59.077-157.538c-3.282 0-6.564-0.821-9.846-2.462l-3.282-1.368c-2.188-0.729-4.376-1.094-6.564-1.094-37.744-8.205-73.846-12.308-108.308-12.308z" />
<glyph unicode="&#xe92c;" glyph-name="personal" horiz-adv-x="853" d="M439.182 385.422c226.542 0 410.738-175.424 410.738-392.533 0-15.709-12.735-28.444-28.444-28.444s-28.444 12.735-28.444 28.444c0 185.053-158.122 335.644-353.849 335.644s-353.849-150.592-353.849-335.644c0-15.709-12.735-28.444-28.444-28.444s-28.444 12.735-28.444 28.444c0 217.109 184.196 392.533 410.738 392.533zM439.182 931.556c126.304 0 228.693-102.389 228.693-228.693s-102.389-228.693-228.693-228.693c-126.304 0-228.693 102.389-228.693 228.693s102.389 228.693 228.693 228.693zM439.182 874.667c-94.885 0-171.804-76.919-171.804-171.804s76.919-171.804 171.804-171.804c94.885 0 171.804 76.919 171.804 171.804s-76.919 171.804-171.804 171.804z" />
<glyph unicode="&#xe92d;" glyph-name="lock" horiz-adv-x="832" d="M74.951-64h682.098c41.244 0 74.951 33.728 74.951 74.998v407.882c0 41.27-33.707 74.998-74.951 74.998h-52.759v177.65c0 159.005-129.385 288.471-288.29 288.471s-288.29-129.466-288.29-288.471v-177.65h-52.759c-41.244 0-74.951-33.728-74.951-74.998v-407.882c0-41.27 33.707-74.998 74.951-74.998zM179.004 671.529c0 130.723 106.355 237.146 236.996 237.146s236.996-106.422 236.996-237.146v-177.65h-473.993v177.65zM757.049 442.553c12.98 0 23.658-10.684 23.658-23.673v-407.882c0-12.989-10.677-23.673-23.658-23.673h-682.098c-12.98 0-23.658 10.684-23.658 23.673v407.882c0 12.989 10.677 23.673 23.658 23.673h682.098zM416 319.581c-57.574 0-104.471-46.926-104.471-104.537 0-57.82 46.897-104.537 104.471-104.537s104.471 46.926 104.471 104.537c0 57.61-46.897 104.537-104.471 104.537zM416 268.046c29.311 0 53.178-23.882 53.178-53.211s-23.867-53.211-53.178-53.211c-29.311 0-53.178 23.882-53.178 53.211s23.867 53.211 53.178 53.211z" />
<glyph unicode="&#xe92e;" glyph-name="deposit" d="M0 226.839v-179.142c0-61.487 49.17-111.697 109.849-111.697h804.302c60.469 0 109.849 49.998 109.849 111.697v179.142c0 61.487-49.17 111.697-109.849 111.697h-221.79c-22.597 0-41.429-17.446-43.73-40.424-7.114-71.486-65.909-125.314-136.631-125.314s-129.517 53.828-136.631 125.314c-2.302 22.978-21.133 40.424-43.73 40.424h-221.79c-60.469 0-109.849-49.998-109.849-111.697zM325.152 286.411c12.554-94.89 91.855-165.738 186.848-165.738s174.293 70.848 186.848 165.738h215.304c32.222 0 58.586-26.595 58.586-59.572v-179.142c0-32.765-26.154-59.572-58.586-59.572h-804.302c-32.222 0-58.586 26.595-58.586 59.572v179.142c0 32.765 26.154 59.572 58.586 59.572h215.304zM512 960c14.228 0 25.527-11.702 25.736-25.956v0-446.577l124.077 126.165c10.043 10.212 26.154 10.212 36.198 0s10.043-26.595 0-36.807v0l-167.807-170.631c-5.022-5.106-11.508-7.659-18.204-7.659s-13.182 2.553-18.204 7.659v0l-167.807 170.631c-10.043 10.212-10.043 26.595 0 36.807s26.154 10.212 36.198 0v0l124.077-126.165v446.364c0 14.468 11.508 26.169 25.736 26.169z" />
<glyph unicode="&#xe92f;" glyph-name="withdrawal" d="M1024 669.161v179.142c0 61.487-49.17 111.697-109.849 111.697h-804.302c-60.469 0-109.849-49.998-109.849-111.697v-179.142c0-61.487 49.17-111.697 109.849-111.697h221.79c22.597 0 41.429 17.446 43.73 40.424 7.114 71.486 65.909 125.314 136.631 125.314s129.517-53.828 136.631-125.314c2.302-22.978 21.133-40.424 43.73-40.424h221.79c60.469 0 109.849 49.998 109.849 111.697zM698.848 609.589c-12.554 94.89-91.855 165.738-186.848 165.738s-174.293-70.848-186.848-165.738h-215.304c-32.222 0-58.586 26.595-58.586 59.572v179.142c0 32.765 26.154 59.572 58.586 59.572h804.302c32.222 0 58.586-26.595 58.586-59.572v-179.142c0-32.765-26.154-59.572-58.586-59.572h-215.304zM529.994-56.341c-10.043-10.212-26.154-10.212-36.198 0v0l-168.016 170.631c-10.043 10.212-10.043 26.595 0 36.807 5.022 5.106 11.508 7.659 18.204 7.659s13.182-2.553 18.204-7.659v0l124.077-126.165v446.364c0 14.468 11.508 26.169 25.736 26.169s25.527-11.702 25.527-26.169v0-446.364l124.077 126.165c10.043 10.212 26.154 10.212 36.198 0s10.043-26.595 0-36.807v0z" />
<glyph unicode="&#xe930;" glyph-name="transaction" horiz-adv-x="960" d="M725.631 375.366c9.74 10.047 25.365 10.047 35.105 0v0l191.756-197.809c9.74-10.047 9.74-26.165 0-36.213v0l-191.756-197.809c-4.87-5.024-11.16-7.536-17.654-7.536s-12.784 2.512-17.654 7.536c-9.74 9.838-9.74 26.165 0 36.213v0l149.347 153.851h-849.816c-13.798 0-24.959 11.513-24.959 25.746s11.16 25.747 24.959 25.747v0h850.019l-149.347 154.060c-9.74 10.047-9.74 26.165 0 36.213zM199.264 952.464c9.537 10.047 25.365 10.047 35.105 0s9.74-26.165 0-36.213v0l-149.347-153.851h850.019c13.798 0 24.959-11.513 24.959-25.746s-11.16-25.747-24.959-25.747v0h-849.816l149.347-154.060c9.74-10.047 9.74-26.165 0-36.213-4.87-5.024-11.16-7.536-17.654-7.536s-12.784 2.512-17.654 7.536v0l-191.756 197.809c-9.74 10.047-9.74 26.165 0 36.213v0z" />
<glyph unicode="&#xe931;" glyph-name="game-history" horiz-adv-x="1088" d="M923.501 651.048c10.212 10.202 28.415 10.202 38.183 0v0l118.324-118.214c10.656-10.646 10.656-27.724 0-38.369s-27.749-10.646-38.405 0v0l-71.927 71.86v-516.99c0-62.545-50.837-113.334-113.44-113.334v0h-624.917c-62.603 0-113.44 50.79-113.44 113.334v0 75.408c0 15.082 12.21 27.28 27.305 27.28s27.305-12.198 27.305-27.28v0-75.408c0-32.603 26.417-58.996 59.051-58.996v0h625.139c32.633 0 59.051 26.393 59.051 58.996v0 516.99l-71.927-71.86c-5.328-5.323-12.21-7.984-19.314-7.984s-13.986 2.662-19.314 7.984c-10.656 10.646-10.656 27.724 0 38.369v0zM544.111 688.308c15.096 0 27.083-12.198 27.305-27.058v0-41.696h50.171c15.096 0 27.305-12.198 27.305-27.28s-12.21-27.28-27.305-27.28v0h-108.112c-21.978 0-39.959-20.183-39.959-44.801s17.982-44.801 39.959-44.801v0h61.271c51.947 0 94.348-44.358 94.348-99.14 0-54.117-41.513-98.474-93.016-99.14v0h-4.662v-42.583c0-15.082-12.21-27.28-27.305-27.28s-27.305 12.198-27.305 27.28v0 42.362h-52.391c-15.096 0-27.305 12.198-27.305 27.28s12.21 27.28 27.305 27.28v0h110.11c21.978 0 39.959 19.961 39.959 44.801 0 24.619-17.982 44.801-39.959 44.801v0h-61.271c-51.947 0-94.348 44.58-94.348 99.14s42.401 99.14 94.348 99.14v0h3.552v41.696c0 15.082 12.21 27.28 27.305 27.28zM856.681 960c62.381 0 113.218-51.011 113.884-113.334v0-75.408c0-15.082-12.21-27.28-27.305-27.28s-27.305 12.198-27.305 27.28v0 75.408c0 32.603-26.417 58.996-59.051 58.996v0h-624.917c-32.633 0-59.051-26.393-59.051-58.996v0-517.212l71.927 71.86c10.656 10.646 27.749 10.646 38.405 0s10.656-27.724 0-38.37v0l-118.324-118.214c-5.328-5.323-12.21-7.984-19.314-7.984s-13.986 2.662-19.314 7.984v0l-118.324 118.214c-10.656 10.646-10.656 27.724 0 38.37s27.749 10.646 38.405 0v0l71.705-71.638v516.99c0 62.545 50.837 113.334 113.44 113.334v0z" />
<glyph unicode="&#xe932;" glyph-name="language" d="M512 960c282.77 0 512-229.23 512-512s-229.23-512-512-512c-282.77 0-512 229.23-512 512s229.23 512 512 512zM667.691 240.114h-306.233c27.115-101.83 76.313-187.121 147.53-256.291l-6.556 6.486c3.181-0.065 6.371-0.098 9.568-0.098l14.697 0.241 6.976 6.964c63.962 66.654 108.652 147.439 134.017 242.698zM305.52 240.117l-201.5 0.008c62.632-122.678 178.97-213.369 318.018-241.077-55.231 68.748-94.037 149.188-116.518 241.069zM919.979 240.125l-196.351-0.008c-22.343-91.315-60.811-171.33-115.439-239.816 136.286 29.175 250.094 118.981 311.789 239.824zM294.946 601.554l-214.328 0.047c-17.097-48.013-26.406-99.72-26.406-153.601 0-53.904 9.316-105.632 26.427-153.661l213.734-0.013c-8.056 47.84-12.082 98.495-12.082 151.935 0 54.692 4.217 106.467 12.654 155.293zM679.141 601.554h-329.134c-9.001-48.371-13.505-100.122-13.505-155.293 0-53.901 4.299-104.538 12.89-151.947h330.362c8.592 47.409 12.89 98.046 12.89 151.947 0 55.171-4.504 106.922-13.505 155.293zM943.383 601.601l-209.179-0.047c8.438-48.826 12.654-100.6 12.654-155.293 0-53.441-4.026-104.095-12.082-151.935l208.585 0.013c17.11 48.029 26.427 99.757 26.427 153.661 0 53.881-9.309 105.588-26.406 153.601zM425.311 897.612c-140.685-27.084-258.251-118.216-321.321-241.797l202.376 0.011c23.061 92.293 62.697 172.968 118.945 241.787zM512 905.788l-6.024-0.060-10.501-10.621c-63.193-65.852-107.575-145.498-133.094-239.267h304.386c-25.519 93.769-69.901 173.415-133.094 239.267l-10.401 10.546c-3.747 0.091-7.504 0.136-11.273 0.136zM604.804 896.376l4.988-6.171c53.1-67.18 90.753-145.377 112.991-234.379l197.227-0.011c-62.198 121.871-177.393 212.186-315.206 240.561z" />
<glyph unicode="&#xe933;" glyph-name="leave" horiz-adv-x="1344" d="M1173.738 960c93.767 0 170.262-76.718 170.262-170.758v0-682.483c0-94.316-76.494-170.758-170.262-170.758v0h-550.267c-93.767 0-170.262 76.718-170.262 170.758v0 110.539c0 18.698 15.080 33.822 33.723 33.822s33.723-15.124 33.723-33.822v0-110.539c0-56.919 46.335-103.39 103.089-103.39v0h549.993c56.754 0 103.089 46.47 103.089 103.39v0 682.483c0 56.919-46.335 103.39-103.089 103.39v0h-549.718c-56.754 0-103.089-46.47-103.089-103.39v0-110.539c0-18.698-15.080-33.822-33.723-33.822s-33.723 15.124-33.723 33.822v0 110.539c0 94.041 76.494 170.758 170.262 170.758v0zM239.902 702.625c13.16 13.199 34.272 13.199 47.432 0s13.16-34.372 0-47.57v0l-172.729-173.233h630.326c18.644 0 33.723-15.124 33.723-33.822s-15.080-33.822-33.723-33.822v0h-630.051l172.729-173.233c13.16-13.199 13.16-34.372 0-47.57-6.58-6.599-15.080-9.899-23.853-9.899s-17.273 3.3-23.853 9.899v0l-230.032 230.702c-13.16 13.199-13.16 34.647 0 47.845v0z" />
<glyph unicode="&#xe934;" glyph-name="jackpotTicket" horiz-adv-x="1152" d="M256 640h640v-384h-640v384zM1024 832c70.6 0 128-57.3 128-128v-160c-53 0-96-43-96-96s43-96 96-96v-160c0-70.6-57.4-128-128-128h-896c-70.7 0-128 57.4-128 128v160c53.020 0 96 43 96 96s-42.98 96-96 96v160c0 70.7 57.3 128 128 128h896zM192 256c0-35.4 28.6-64 64-64h640c35.4 0 64 28.6 64 64v384c0 35.4-28.6 64-64 64h-640c-35.4 0-64-28.6-64-64v-384z" />
<glyph unicode="&#xe935;" glyph-name="date" d="M680.028 920.587c0 21.748 21.498 39.413 48.079 39.413s48.079-17.665 48.079-39.413v-172.653c0-21.748-21.498-39.413-48.079-39.413s-48.079 17.665-48.079 39.413v172.653zM550.872 79.572c-6.666 0-6.666 84.16 0 84.16h131.573c6.666 0 6.666-84.16 0-84.16zM132.073 385.547c-6.666 0-6.666 84.16 0 84.16h131.573c6.666 0 6.666-84.16 0-84.16zM341.472 385.547c-6.666 0-6.666 84.16 0 84.16h131.573c6.666 0 6.666-84.16 0-84.16zM550.872 385.547c-6.666 0-6.666 84.16 0 84.16h131.573c6.666 0 6.666-84.16 0-84.16zM760.355 469.707h131.239c6.666 0 6.666-84.16 0-84.16h-131.239c-6.666 0-6.666 84.16 0 84.16zM132.073 232.559c-6.666 0-6.666 84.16 0 84.16h131.573c6.666 0 6.666-84.16 0-84.16zM341.639 232.559c-6.666 0-6.666 84.16 0 84.16h131.406c6.666 0 6.666-84.16 0-84.16zM551.038 232.559c-6.666 0-6.666 84.16 0 84.16h131.406c6.666 0 6.666-84.16 0-84.16zM760.521 232.559c-6.666 0-6.666 84.16 0 84.16h131.073c6.666 0 6.666-84.16 0-84.16zM132.239 79.572c-6.666 0-6.666 84.16 0 84.16h131.406c6.666 0 6.666-84.16 0-84.16zM341.639 79.572c-6.666 0-6.666 84.16 0 84.16h131.406c6.666 0 6.666-84.16 0-84.16zM246.73 920.587c0 21.748 21.498 39.413 48.079 39.413s48.079-17.665 48.079-39.413v-172.653c0-21.748-21.498-39.413-48.079-39.413s-48.079 17.665-48.079 39.413v172.653zM53.329 597.779h917.175v183.318c-0.076 6.727-2.797 12.804-7.17 17.252l0.003-0.004c-4.407 4.427-10.506 7.166-17.244 7.166-0.001 0-0.003 0-0.004 0h-87.826c-14.726 0-26.664 11.938-26.664 26.664s11.938 26.664 26.664 26.664v0h87.91c42.88-0.142 77.602-34.864 77.744-77.73v-767.368c-0.142-42.88-34.864-77.602-77.73-77.744h-868.443c-42.909 0.142-77.649 34.912-77.744 77.818v767.28c0.142 42.88 34.864 77.602 77.73 77.744h93.923c14.726 0 26.664-11.938 26.664-26.664s-11.938-26.664-26.664-26.664v0h-93.909c-6.727-0.076-12.804-2.797-17.252-7.17l0.004 0.003c-4.427-4.407-7.166-10.506-7.166-17.244 0-0.001 0-0.003 0-0.004v0-183.318zM970.588 544.367h-917.259v-530.54c0.076-6.727 2.797-12.804 7.17-17.252l-0.003 0.004c4.407-4.427 10.506-7.166 17.244-7.166 0.001 0 0.003 0 0.004 0h868.429c6.727 0.076 12.804 2.797 17.252 7.17l-0.004-0.003c4.427 4.407 7.166 10.506 7.166 17.244 0 0.001 0 0.003 0 0.004v0 530.54zM420.216 805.513c-14.726 0-26.664 11.938-26.664 26.664s11.938 26.664 26.664 26.664v0h179.069c14.726 0 26.664-11.938 26.664-26.664s-11.938-26.664-26.664-26.664v0z" />
<glyph unicode="&#xe936;" glyph-name="tombala" horiz-adv-x="960" d="M285.538 491.037c148.454 0 268.8-120.346 268.8-268.8s-120.346-268.8-268.8-268.8c-148.454 0-268.8 120.346-268.8 268.8s120.346 268.8 268.8 268.8zM423.357 959.046l4.43-1.064 472.053-135.359c29.436-8.441 46.383-41.2 39.326-74.309l-1.24-4.966-201.929-704.208c-9.487-33.084-40.268-53.862-69.878-48.11l-4.43 1.064-134.4 38.486c11.777 14.887 22.19 30.902 31.050 47.857l107.311-30.782c5.707-1.637 11.306 0.536 13.743 5.032l0.842 2.065 17.93 62.529c1.471 5.129-1.229 10.375-6.296 12.859l-2.312 0.887-102.471 29.368c1.853 9.48 3.265 19.118 4.214 28.891l106.226-30.468c5.707-1.637 11.306 0.536 13.743 5.032l0.842 2.065 17.93 62.529c1.471 5.129-1.229 10.375-6.296 12.859l-2.312 0.887-115.962 33.251c-5.707 1.637-11.306-0.536-13.743-5.032l-0.842-2.065-1.374-4.862c-2.927 19.98-7.797 39.329-14.413 57.848l1.061 1.563 0.842 2.065 17.93 62.529c1.471 5.129-1.229 10.375-6.296 12.859l-2.312 0.887-70.864 20.326c-21.36 23.896-46.442 44.394-74.335 60.584l0.768 1.859 17.93 62.529c1.471 5.129-1.229 10.375-6.296 12.859l-2.312 0.887-115.962 33.251c-5.707 1.637-11.306-0.536-13.743-5.032l-0.842-2.065-17.93-62.529c-0.116-0.404-0.206-0.808-0.271-1.211-4.507 0.241-9.106 0.344-13.729 0.344-16.184 0-32.072-1.265-47.572-3.7l112.312 391.598c9.487 33.084 40.268 53.862 69.878 48.11zM285.538 414.237c-106.039 0-192-85.961-192-192s85.961-192 192-192c106.039 0 192 85.961 192 192s-85.961 192-192 192zM285.538 388.637c91.9 0 166.4-74.5 166.4-166.4s-74.5-166.4-166.4-166.4c-91.9 0-166.4 74.5-166.4 166.4s74.5 166.4 166.4 166.4zM285.538 363.037c-77.647 0-140.8-63.153-140.8-140.8s63.153-140.8 140.8-140.8c77.647 0 140.8 63.153 140.8 140.8s-63.153 140.8-140.8 140.8zM321.538 301.337v-24.2h-59.3l-5.2-31.7 3.119 1.969c2.938 1.788 5.331 3.031 7.181 3.731 4.133 1.533 9.167 2.3 15.1 2.3 12 0 22.467-4.033 31.4-12.1s13.4-19.8 13.4-35.2c0-13.4-4.3-25.367-12.9-35.9s-21.467-15.8-38.6-15.8c-13.8 0-25.133 3.7-34 11.1-7.758 6.475-12.505 15.323-14.241 26.545l-0.559 4.955h28.4l0.804-3.55c1.237-4.507 3.136-8.107 5.696-10.8 3.2-3.367 7.867-5.050 14-5.050 7.067 0 12.45 2.483 16.15 7.45s5.55 11.217 5.55 18.75c0 7.4-1.733 13.65-5.2 18.75s-8.867 7.65-16.2 7.65c-3.467 0-6.467-0.433-9-1.3-3.573-1.28-6.443-3.435-8.608-6.464l-1.492-2.436-25.6 1.2 10.2 80.1h79.9zM623.604 381.571l-0.842-2.065-17.93-62.529c-1.471-5.129 1.229-10.375 6.296-12.859l2.312-0.887 115.962-33.251c5.707-1.637 11.306 0.536 13.743 5.032l0.842 2.065 17.93 62.529c1.471 5.129-1.229 10.375-6.296 12.859l-2.312 0.887-115.962 33.251c-5.707 1.637-11.306-0.536-13.743-5.032zM655.479 492.734l-0.842-2.065-17.93-62.529c-1.471-5.129 1.229-10.375 6.296-12.859l2.312-0.887 115.962-33.251c5.707-1.637 11.306 0.536 13.743 5.032l0.842 2.065 17.93 62.529c1.471 5.129-1.229 10.375-6.296 12.859l-2.312 0.887-115.962 33.251c-5.707 1.637-11.306-0.536-13.743-5.032zM316.324 938.209c-0.238-0.765-0.468-1.534-0.69-2.309l-42.994-149.851-19.637-2.757c-5.88-0.826-10.111-5.088-10.508-10.186l0.071-2.229 8.475-60.22-19.648-68.416-1.403 10.089c-0.637 4.529-4.107 7.89-8.637 8.89l-2.345 0.297-2.473-0.13-119.461-16.789c-5.88-0.826-10.111-5.088-10.508-10.186l0.071-2.229 9.053-64.416c0.743-5.284 5.342-8.978 10.982-9.187l2.473 0.13 102.44 14.411-8.736-30.432-89.68-12.608c-5.88-0.826-10.111-5.088-10.508-10.186l0.071-2.229 7.385-52.614c-19.051-13.856-36.431-29.872-51.78-47.687l-57.617 410.093c-4.79 34.083 14.879 65.584 44.269 72.373l4.479 0.83 266.858 37.548zM488.494 540.617l-0.842-2.065-17.93-62.529c-1.471-5.129 1.229-10.375 6.296-12.859l2.312-0.887 115.962-33.251c5.707-1.637 11.306 0.536 13.743 5.032l0.842 2.065 17.93 62.529c1.471 5.129-1.229 10.375-6.296 12.859l-2.312 0.887-115.962 33.251c-5.707 1.637-11.306-0.536-13.743-5.032zM687.355 603.898l-0.842-2.065-17.93-62.529c-1.471-5.129 1.229-10.375 6.296-12.859l2.312-0.887 115.962-33.251c5.707-1.637 11.306 0.536 13.743 5.032l0.842 2.065 17.93 62.529c1.471 5.129-1.229 10.375-6.296 12.859l-2.312 0.887-115.962 33.251c-5.707 1.637-11.306-0.536-13.743-5.032zM520.37 651.78l-0.842-2.065-17.93-62.529c-1.471-5.129 1.229-10.375 6.296-12.859l2.312-0.887 115.962-33.251c5.707-1.637 11.306 0.536 13.743 5.032l0.842 2.065 17.93 62.529c1.471 5.129-1.229 10.375-6.296 12.859l-2.312 0.887-115.962 33.251c-5.707 1.637-11.306-0.536-13.743-5.032zM353.385 699.662l-0.842-2.065-17.93-62.529c-1.471-5.129 1.229-10.375 6.296-12.859l2.312-0.887 115.962-33.251c5.707-1.637 11.306 0.536 13.743 5.032l0.842 2.065 17.93 62.529c1.471 5.129-1.229 10.375-6.296 12.859l-2.312 0.887-115.962 33.251c-5.707 1.637-11.306-0.536-13.743-5.032zM719.23 715.061l-0.842-2.065-17.93-62.529c-1.471-5.129 1.229-10.375 6.296-12.859l2.312-0.887 115.962-33.251c5.707-1.637 11.306 0.536 13.743 5.032l0.842 2.065 17.93 62.529c1.471 5.129-1.229 10.375-6.296 12.859l-2.312 0.887-115.962 33.251c-5.707 1.637-11.306-0.536-13.743-5.032zM552.245 762.943l-0.842-2.065-17.93-62.529c-1.471-5.129 1.229-10.375 6.296-12.859l2.312-0.887 115.962-33.251c5.707-1.637 11.306 0.536 13.743 5.032l0.842 2.065 17.93 62.529c1.471 5.129-1.229 10.375-6.296 12.859l-2.312 0.887-115.962 33.251c-5.707 1.637-11.306-0.536-13.743-5.032zM202.912 776.034l-2.473-0.13-119.461-16.789c-5.88-0.826-10.111-5.088-10.508-10.186l0.071-2.229 9.053-64.416c0.743-5.284 5.342-8.978 10.982-9.187l2.473 0.13 119.461 16.789c5.88 0.826 10.111 5.088 10.508 10.186l-0.071 2.229-9.053 64.416c-0.637 4.529-4.107 7.89-8.637 8.89l-2.345 0.297zM385.26 810.825l-0.842-2.065-17.93-62.529c-1.471-5.129 1.229-10.375 6.296-12.859l2.312-0.887 115.962-33.251c5.707-1.637 11.306 0.536 13.743 5.032l0.842 2.065 17.93 62.529c1.471 5.129-1.229 10.375-6.296 12.859l-2.312 0.887-115.962 33.251c-5.707 1.637-11.306-0.536-13.743-5.032z" />
<glyph unicode="&#xe937;" glyph-name="bonus-info" horiz-adv-x="1109" d="M947.556-64c38.278 0 69.333 32.762 69.333 73.143v316.952h69.333c13 0 23.111 10.667 23.111 24.381v243.81c0 13.714-10.111 24.381-23.111 24.381h-317.778c89.556 0 161.778 76.19 161.778 170.667s-72.222 170.667-161.778 170.667c-48.389 0-93.167-21.333-121.333-58.667l-92.444-125.714-92.444 125.714c-28.167 37.333-72.944 58.667-121.333 58.667-89.556 0-161.778-76.19-161.778-170.667s72.222-170.667 161.778-170.667h-317.778c-13 0-23.111-10.667-23.111-24.381v-243.81c0-13.714 10.111-24.381 23.111-24.381h69.333v-316.952c0-40.381 31.056-73.143 69.333-73.143h785.778zM481.722 716.19h-140.833c-38.278 0-69.333 32.762-69.333 73.143s31.056 73.143 69.333 73.143c24.556 0 41.889-13.714 49.833-23.619l91-122.667zM768.444 716.19h-140.111l90.278 122.667c7.944 9.905 25.278 23.619 49.833 23.619 38.278 0 69.333-32.762 69.333-73.143s-31.056-73.143-69.333-73.143zM624 33.524h-138.667c-25.278 0-46.222 12.952-46.222 39.619v545.524h231.111v-545.524c0-26.667-20.944-39.619-46.222-39.619z" />
<glyph unicode="&#xe938;" glyph-name="Lock" horiz-adv-x="853" d="M782.222-64c39.259 0 71.111 31.273 71.111 69.818v418.909c0 38.545-31.852 69.818-71.111 69.818h-23.704v139.636c0 178.909-149.63 325.818-331.852 325.818s-331.852-146.909-331.852-325.818v-139.636h-23.704c-39.259 0-71.111-31.273-71.111-69.818v-418.909c0-38.545 31.852-69.818 71.111-69.818h711.111zM616.296 494.545h-379.259v139.636c0 102.545 85.185 186.182 189.63 186.182s189.63-83.636 189.63-186.182v-139.636z" />
<glyph unicode="&#xe939;" glyph-name="user-arrow" horiz-adv-x="1792" d="M896 64l896 896h-1792z" />
<glyph unicode="&#xe93a;" glyph-name="freerounds" horiz-adv-x="1152" d="M356.441 215.421c27.711 0 49.548-9.436 65.513-28.309s24.061-45.357 24.289-79.454v0-42.592l-0.165-8.197c-1.206-29.487-9.049-52.697-23.526-69.631-15.794-18.474-37.717-27.711-65.77-27.711-27.939 0-49.89 9.151-65.855 27.454s-24.061 43.932-24.289 76.888v0 42.592l0.165 8.396c1.211 30.214 9.081 54.128 23.611 71.742 15.851 19.215 37.86 28.822 66.026 28.822zM530.914 212v-171.395l0.14-5.812c0.559-11.129 2.793-19.284 6.702-24.464 4.561-6.044 12.829-9.066 24.803-9.066s20.184 2.993 24.632 8.98c4.447 5.987 6.728 15.822 6.842 29.507v0 172.25h50.289v-172.421l-0.275-7.584c-1.447-22.204-8.482-39.49-21.106-51.857-14.026-13.741-34.154-20.612-60.382-20.612-26.684 0-47.068 6.956-61.151 20.868s-21.125 34.039-21.125 60.382v0 171.224h50.632zM157.336 212l7.389-0.196c21.65-1.175 38.659-7.638 51.026-19.39 13.741-13.057 20.612-31.616 20.612-55.678 0-33.070-12.031-56.219-36.092-69.447v0l43.618-101.947v-2.395h-54.053l-37.461 91h-24.974v-91h-50.289v249.053h80.224zM732.757 212l73.724-163.526v163.526h50.118v-249.053h-50.289l-73.553 163.355v-163.355h-50.289v249.053h50.289zM962.822 212l7.147-0.192c25.754-1.411 46.549-10.584 62.386-27.518 17.276-18.474 26.086-43.789 26.428-75.947v0-40.368l-0.18-8.035c-1.32-28.925-9.898-51.933-25.735-69.024-17.276-18.645-41.081-27.967-71.414-27.967v0h-64.487v249.053h65.855zM356.441 173.342c-13.342 0-23.206-5.274-29.592-15.822s-9.693-26.599-9.921-48.151v0-44.303l0.12-7.048c0.642-18.229 3.852-31.93 9.63-41.103 6.5-10.32 16.535-15.48 30.105-15.48 13.114 0 22.864 5.046 29.25 15.138s9.636 25.743 9.75 46.954v0 43.276l-0.118 7.275c-0.631 18.831-3.784 33.112-9.461 42.843-6.386 10.947-16.307 16.421-29.763 16.421zM965.559 170.092h-18.303v-165.408h15.053c16.763 0 28.566 4.419 35.408 13.257s10.434 24.090 10.776 45.757v0 43.276l-0.12 7.494c-0.642 19.287-3.852 33.011-9.63 41.171-6.5 9.18-17.561 13.998-33.184 14.454v0zM156.822 170.092h-29.421v-74.237h28.566c10.035 0 17.561 3.336 22.579 10.007s7.526 15.594 7.526 26.77c0 24.974-9.75 37.461-29.25 37.461v0zM1071.158 949.895c26.355 0 47.997-20.178 50.32-45.927l0.206-4.599v-498.526c0-26.355-20.178-47.997-45.927-50.32l-4.599-0.206h-1010.526c-26.355 0-47.997 20.178-50.32 45.927l-0.206 4.599v498.526c0 26.355 20.178 47.997 45.927 50.32l4.599 0.206h1010.526zM282.937 916.231l-222.306-0.020c-8.268 0-15.145-5.958-16.571-13.815l-0.271-3.027v-498.526c0-8.268 5.958-15.145 13.815-16.571l3.027-0.271 222.306 0.007v532.224zM821.881 916.231h-229.056v-532.224h229.056v532.224zM565.881 916.231h-256v-532.224h256v532.224zM1071.158 916.211l-222.333 0.020v-532.224l222.333-0.007c8.268 0 15.145 5.958 16.571 13.815l0.271 3.027v498.526c0 9.302-7.54 16.842-16.842 16.842zM415.101 744.421l6.574-0.167c19.173-1.004 33.41-6.523 42.71-16.559 9.186-9.912 14.289-24.564 15.309-43.956l0.191-7.494v-18.209l-0.146-6.421c-1.168-24.993-9.344-41.689-24.529-50.089l-3.942-1.927v-0.847l4.352-1.668c8.322-3.768 14.357-10.128 18.104-19.082s5.889-20.499 6.424-34.637l0.134-7.285v-52.085l0.050-6.048c0.099-5.743 0.348-10.573 0.745-14.49 0.353-3.482 1.060-6.932 2.12-10.351l1.855-5.105h-44.515l-1.413 4.705c-0.824 3.074-1.413 6.023-1.766 8.846-0.363 2.904-0.602 7.4-0.716 13.49l-0.062 4.866-0.016 58.714-0.126 5.557c-0.503 10.612-2.515 18.217-6.035 22.815s-9.231 7.225-17.131 7.882l-4.133 0.164h-15.103v-127.038h-43.72v296.421h64.785zM1024 771.368v-42.346h-85.333v-78.34h67.818v-42.346h-67.818v-91.044h85.333v-42.346h-134.737v296.421h134.737zM781.474 825.263v-42.346h-85.333v-78.34h67.818v-42.346h-67.818v-91.044h85.333v-42.346h-134.737v296.421h134.737zM242.526 852.211v-42.346h-83.805v-82.574h65.748v-42.346h-65.748v-129.155h-50.931v296.421h134.737zM413.908 702.075h-19.873v-84.692h15.898c8.744 0 15.302 2.4 19.674 7.199 3.747 4.114 5.889 10.612 6.424 19.496l0.134 4.641v22.867l-0.149 5.117c-0.497 8.116-2.236 14.174-5.217 18.173-3.577 4.799-9.208 7.199-16.892 7.199z" />
<glyph unicode="&#xe93b;" glyph-name="allGames" d="M512 960c282.141 0 512-229.509 512-512.225s-229.408-511.775-512-511.775c-282.141 0-512 229.509-512 512.225s229.859 511.775 512 511.775zM362.975 141.231l-61.213-106.038c56.441-28.861 119.546-46.479 186.349-49.887l-0.008 122.415c-44.604 3.103-86.866 14.826-125.128 33.51zM661.237 141.278c-38.055-18.586-80.080-30.298-124.452-33.496l0.002-122.43c66.547 3.523 129.408 21.149 185.645 49.939l-61.194 105.987zM229.766 256.928l-106.115-61.326c35.364-54.239 81.766-100.643 135.996-136l61.207 106.075c-35.823 24.366-66.78 55.377-91.087 91.251zM794.313 256.774c-24.271-35.772-55.183-66.722-90.966-91.057l61.166-106.011c54.151 35.338 100.489 81.692 135.815 135.864l-106.015 61.204zM512 740.41c-161.352 0-292.507-131.213-292.507-292.636s131.155-292.636 292.507-292.636c161.352 0 292.507 131.213 292.507 292.636s-131.155 292.636-292.507 292.636zM974.693 423.877l-122.735 0.010c-3.005-44.509-14.642-86.725-33.258-124.975l106.037-61.242c28.851 56.396 46.49 119.452 49.956 186.207zM172.095 423.878l-122.788-0.001c3.466-66.73 21.092-129.763 49.924-186.143l106.189 61.301c-18.578 38.19-30.233 80.351-33.325 124.843zM512 634.448c30.648-68.537 68.958-128.056 116.732-174.048-47.324-42.836-85.634-100.1-116.732-167.285-27.944 67.635-66.254 124.449-117.634 167.285 47.775 50.050 86.535 108.668 117.634 174.048zM99.116 658.492c-28.764-56.323-46.348-119.277-49.809-185.919l122.852 0.003c3.199 44.344 14.907 86.36 33.494 124.417l-106.537 61.499zM924.851 658.557l-106.52-61.531c18.597-38.066 30.31-80.092 33.51-124.449l122.851-0.003c-3.462 66.667-21.059 129.644-49.842 185.983zM259.647 836.849c-54.304-35.406-100.759-81.889-136.141-136.223l106.586-61.525c24.345 35.798 55.32 66.735 91.145 91.032l-61.591 106.716zM764.544 836.724l-61.579-106.729c35.729-24.269 66.625-55.145 90.921-90.862l106.566 61.556c-35.335 54.243-81.707 100.658-135.908 136.035zM536.786 911.099l-0.003-123.333c44.204-3.191 86.093-14.847 124.051-33.354l61.597 106.748c-56.237 28.79-119.097 46.415-185.645 49.939zM488.111 911.145c-66.804-3.408-129.909-21.026-186.349-49.887l61.628-106.738c38.153 18.567 80.27 30.215 124.713 33.307l0.008 123.317z" />
<glyph unicode="&#xe93c;" glyph-name="icon-pay" d="M969.728 707.584c0-5.632-2.56-11.264-7.168-16.896-39.424-48.128-78.848-95.744-117.76-143.872-64-78.336-128.512-156.672-192.512-235.008-65.536-79.872-131.072-160.256-196.608-240.128-12.288-15.36-25.088-16.384-39.936-3.584-25.088 22.528-49.152 45.056-73.728 67.584-53.248 49.152-106.496 98.304-159.744 147.456-29.696 27.136-59.392 54.784-89.088 82.432-10.24 9.216-19.968 18.432-29.696 28.16-12.288 11.776-12.288 25.6-0.512 38.4 34.816 37.888 70.144 75.776 104.96 114.176 13.312 14.336 27.136 15.36 42.496 1.536 22.528-20.48 44.544-40.96 66.56-61.44 38.4-35.84 76.8-71.168 115.2-107.008 4.608-4.096 9.728-8.704 15.872-10.24 8.704-1.536 16.384 1.024 22.016 8.192 18.432 22.016 36.352 44.032 54.784 66.048 54.784 67.072 109.568 134.144 164.352 201.216 49.664 60.416 99.328 121.344 148.992 181.76 10.752 13.312 25.6 14.848 38.912 4.096 40.96-33.28 81.92-67.072 122.88-100.352 6.144-6.144 9.728-12.8 9.728-22.528z" />
<glyph unicode="&#xe93d;" glyph-name="icon-pending" d="M81.408 503.808c8.192 181.248 90.112 316.928 257.536 390.656 160.256 70.656 312.832 46.592 448.512-63.488 135.68-109.568 186.88-291.328 134.656-460.288-50.688-162.816-199.68-282.624-371.2-296.96-17.92-1.536-23.552-8.192-23.040-25.088 0.512-15.872 1.024-32.256 0-48.128-2.048-33.28-29.184-49.664-56.832-32.256-61.952 38.912-122.88 78.848-183.296 119.808-22.528 15.36-23.552 43.008-1.536 58.368 60.928 41.984 122.368 82.432 185.344 121.344 25.6 15.872 51.712 0.512 55.808-29.696 2.048-14.336 2.048-28.672 0.512-43.008-1.536-23.040 7.68-30.72 30.208-26.624 112.64 19.456 199.168 77.312 251.392 179.2 118.784 229.888-52.736 498.688-312.32 490.496-174.080-5.632-317.952-152.576-321.536-326.144-1.536-79.36 19.968-150.528 67.072-214.528 19.968-27.136 17.408-55.296-5.632-71.68-22.528-15.872-48.64-10.24-68.608 16.384-57.856 76.8-88.576 163.328-87.040 261.632zM653.824 365.056c-7.168 0-14.336 1.536-20.992 5.632l-146.944 81.92c-13.824 7.68-22.528 22.016-22.528 37.888v205.312c0 24.064 19.456 43.52 43.52 43.52s43.52-19.456 43.52-43.52v-180.224l124.416-69.632c20.992-11.776 28.672-38.4 16.896-59.392-7.68-13.312-22.528-21.504-37.888-21.504z" />
<glyph unicode="&#xe93e;" glyph-name="icon-x" d="M31.744 448c-7.168 254.976 210.944 482.304 481.28 481.28 258.048-1.024 481.28-210.944 480.256-483.328-2.048-270.336-225.28-480.256-485.376-479.232-266.24 2.048-483.328 226.304-476.16 481.28zM273.408 262.656c0-11.264 1.024-16.384 5.12-24.576 16.384-31.744 58.368-38.912 83.968-13.312 47.104 46.080 93.184 92.16 139.264 139.264 7.168 7.168 11.264 6.144 17.408 0 45.056-46.080 91.136-91.136 136.192-136.192 4.096-4.096 8.192-8.192 14.336-11.264 22.528-12.288 52.224-7.168 67.584 12.288 17.408 21.504 15.36 52.224-4.096 71.68-46.080 46.080-92.16 92.16-137.216 138.24-10.24 10.24-10.24 10.24 0 19.456 45.056 45.056 91.136 91.136 136.192 136.192 17.408 17.408 21.504 40.96 12.288 61.44-15.36 32.768-58.368 40.96-84.992 14.336-47.104-46.080-93.184-92.16-139.264-139.264-7.168-7.168-11.264-6.144-17.408 0-45.056 46.080-91.136 91.136-136.192 136.192-4.096 4.096-8.192 8.192-14.336 11.264-22.528 12.288-52.224 7.168-67.584-12.288-17.408-21.504-15.36-52.224 4.096-71.68 46.080-46.080 92.16-92.16 137.216-138.24 10.24-10.24 10.24-10.24 0-19.456-45.056-45.056-91.136-91.136-136.192-136.192-11.264-10.24-16.384-22.528-16.384-37.888z" />
<glyph unicode="&#xe93f;" glyph-name="touch" horiz-adv-x="928" d="M785.8 563.2h-2.6c-19 0-34.4-5.4-49.4-14.8-13.2 38.2-46.4 65.8-89.4 65.8-19 0-37-5.4-52-14.8-13.2 38.2-46.4 65.8-89.4 65.8-16.8 0-32.4-4.2-46-11.6v98.4c0 53.6-40.6 97-94.6 97s-97.8-43.4-97.8-97v-376.6l-59.4 59.2c-38.2 38-105.8 32.6-138.2 0-32.6-32.6-53.8-97.8-7.2-144.4l273-271.2c5.6-5.6 11.8-10.2 18.4-14.2 49.8-40.6 106.8-64.6 227.4-64.6 275.4 0 301 148.6 301 332v194c-0.4 53.6-39.8 97-93.8 97v0 0zM827.8 272.2c0-155.2-0.8-280.8-249.6-280.8-105.4 0-168.6 23.4-216.6 71l-258.2 256.8c-22.8 22.8-17.2 52 1.6 70.8 18.6 18.6 53 19.4 71.2 1.4 0 0 45.4-45 84.4-83.8 29.4-29.6 55.4-55.4 55.4-55.4v489.8c0 25.4 20.8 46 46.4 46s43-20.6 43-46v-311.6h0.6c-0.4-1.6-0.6-3.4-0.6-5.2 0-14 11.6-25.6 25.8-25.6s25.8 11.4 25.8 25.6c0 1.8-0.2 3.4-0.6 5.2h0.6v127.6c0 25.4 18.4 46 44 46 0 0 45.2 0.6 45.2-46v-168.6h0.6c-0.4-1.6-0.6-3.4-0.6-5.2 0-14 11.6-25.6 25.8-25.6s25.8 11.4 25.8 25.6c0 1.8-0.2 3.4-0.6 5.2h0.6v117.4c0 25.4 18.2 46 43.8 46 0 0 46.2-3 46.2-46v-148.2h0.6c-0.4-1.6-0.6-3.4-0.6-5.2 0-14 11.6-25.6 25.8-25.6s25 11.4 25 25.6c0 1.8-0.2 3.4-0.4 5.2h0.4v101.4c0 25.4 19 46 44.6 46 0 0 44.8 1.8 44.8-46l-0.2-187.8zM226.4 607.6v85.8c-8.2 18.4-12.8 38.6-12.8 59.8 0 81.4 66 147.2 147.2 147.2 81.4 0 147.2-66 147.2-147.2 0-11-1.4-21.8-3.6-32.2 18.6-0.8 35.2-8.4 47.4-20.8 4.8 16.8 7.6 34.6 7.6 53 0 109.6-88.8 198.4-198.4 198.4s-198.4-88.8-198.4-198.4c-0.2-57.6 24.4-109.4 63.8-145.6v0 0z" />
<glyph unicode="&#xe940;" glyph-name="angle-down" horiz-adv-x="1707" d="M1706.667 789.333l-170.667 170.667-682.667-677.333-682.667 677.333-170.667-170.667 853.333-853.333z" />
<glyph unicode="&#xe941;" glyph-name="bonus" horiz-adv-x="1152" d="M984-64c39.75 0 72 32.762 72 73.143v316.952h72c13.5 0 24 10.667 24 24.381v243.81c0 13.714-10.5 24.381-24 24.381h-330c93 0 168 76.19 168 170.667s-75 170.667-168 170.667c-50.25 0-96.75-21.333-126-58.667l-96-125.714-96 125.714c-29.25 37.333-75.75 58.667-126 58.667-93 0-168-76.19-168-170.667s75-170.667 168-170.667h-330c-13.5 0-24-10.667-24-24.381v-243.81c0-13.714 10.5-24.381 24-24.381h72v-316.952c0-40.381 32.25-73.143 72-73.143h816zM500.25 716.19h-146.25c-39.75 0-72 32.762-72 73.143s32.25 73.143 72 73.143c25.5 0 43.5-13.714 51.75-23.619l94.5-122.667zM798 716.19h-145.5l93.75 122.667c8.25 9.905 26.25 23.619 51.75 23.619 39.75 0 72-32.762 72-73.143s-32.25-73.143-72-73.143zM648 33.524h-144c-26.25 0-48 12.952-48 39.619v545.524h240v-545.524c0-26.667-21.75-39.619-48-39.619z" />
<glyph unicode="&#xe942;" glyph-name="myBonus" horiz-adv-x="775" d="M532.369 234.897v-209.228l0.123-4.025c0.49-7.686 2.451-13.189 5.883-16.511 4.004-3.875 9.364-5.812 16.080-5.812s12.076 1.937 16.080 5.812c3.432 3.321 5.393 8.825 5.883 16.511l0.123 4.025v209.228h40.296v-206.516l-0.161-6.434c-0.965-18.842-6.271-33.552-15.919-44.13-10.72-11.753-26.541-17.629-47.464-17.629s-36.744 5.876-47.464 17.629c-9.648 10.578-14.954 25.288-15.919 44.13l-0.161 6.434v206.516h42.621zM234.026 237.997c20.923 0 36.938-5.876 48.045-17.629 9.996-10.578 15.495-25.288 16.494-44.13l0.167-6.434v-141.035l-0.167-6.434c-1-18.842-6.498-33.552-16.494-44.13-11.107-11.753-27.122-17.629-48.045-17.629s-36.938 5.876-48.045 17.629c-9.996 10.578-15.495 25.288-16.494 44.13l-0.167 6.434v141.035l0.167 6.434c1 18.842 6.498 33.552 16.494 44.13 11.107 11.753 27.122 17.629 48.045 17.629zM703.239 237.997c20.923 0 36.615-5.876 47.076-17.629 9.415-10.578 14.594-25.288 15.535-44.13l0.157-6.434v-8.524h-40.296v11.236l-0.115 4.029c-0.459 7.702-2.293 13.269-5.504 16.7-3.745 4.004-8.976 6.006-15.692 6.006s-11.947-2.002-15.692-6.006c-3.745-4.004-5.618-10.913-5.618-20.729 0-9.299 2.066-17.5 6.199-24.604s9.299-13.819 15.498-20.148c6.199-6.329 12.851-12.657 19.954-18.986s13.755-13.238 19.954-20.729c6.199-7.491 11.365-16.015 15.498-25.572s6.199-20.794 6.199-33.709c0-21.956-5.36-38.811-16.080-50.563s-26.541-17.629-47.464-17.629c-20.923 0-36.744 5.876-47.464 17.629-9.648 10.578-14.954 25.288-15.919 44.13l-0.161 6.434v16.661h40.296v-19.373l0.123-4.025c0.49-7.686 2.451-13.189 5.883-16.511 4.004-3.875 9.364-5.812 16.080-5.812s12.076 1.937 16.080 5.812c4.004 3.875 6.006 10.72 6.006 20.535 0 9.299-2.066 17.5-6.199 24.604s-9.299 13.819-15.498 20.148c-6.199 6.329-12.851 12.657-19.954 18.986s-13.755 13.238-19.954 20.729c-6.199 7.491-11.365 16.015-15.498 25.572s-6.199 20.794-6.199 33.709c0 21.956 5.231 38.811 15.692 50.563s26.154 17.629 47.076 17.629zM79.817 234.897l6.48-0.155c18.889-0.93 32.808-6.044 41.758-15.343s13.873-22.887 14.768-40.765l0.149-6.118v-9.686l-0.134-5.828c-0.538-11.355-2.688-20.907-6.452-28.656-4.391-9.041-11.365-15.757-20.923-20.148 11.624-4.391 19.825-11.559 24.604-21.504 4.096-8.524 6.437-18.709 7.022-30.554l0.146-6.061v-22.085l-0.163-6.128c-0.976-17.935-6.347-31.843-16.111-41.724s-23.817-15.314-42.159-16.302l-6.273-0.165h-67.030v271.222h64.318zM379.323 234.897l43.783-162.346v162.346h37.971v-271.222h-43.783l-53.082 196.442v-196.442h-38.358v271.222h53.469zM234.026 199.251c-6.716 0-12.076-2.002-16.080-6.006-3.432-3.432-5.393-8.999-5.883-16.7l-0.123-4.029v-146.46l0.123-4.029c0.49-7.702 2.451-13.269 5.883-16.7 4.004-4.004 9.364-6.006 16.080-6.006s12.076 2.002 16.080 6.006c3.432 3.432 5.393 8.999 5.883 16.7l0.123 4.029v146.46l-0.123 4.029c-0.49 7.702-2.451 13.269-5.883 16.7-4.004 4.004-9.364 6.006-16.080 6.006zM77.104 85.725h-18.986v-83.304h24.41c7.233 0 12.722 1.937 16.467 5.812 3.21 3.321 5.045 8.919 5.504 16.795l0.115 4.128v23.635l-0.1 4.559c-0.466 10.199-2.564 17.333-6.293 21.401-4.262 4.65-11.301 6.974-21.117 6.974zM78.654 196.151h-20.535v-71.68h16.661c8.007 0 14.271 2.066 18.792 6.199 3.875 3.542 6.089 9.552 6.642 18.029l0.138 4.444v15.111l-0.107 4.041c-0.427 7.749-2.135 13.506-5.124 17.27-3.487 4.391-8.976 6.587-16.467 6.587zM696.197 723.834c43.477 0 78.722-35.245 78.722-78.722v-270.607c0-43.477-35.245-78.722-78.722-78.722h-617.475c-43.477 0-78.722 35.245-78.722 78.722v270.607c0 43.477 35.245 78.722 78.722 78.722h617.475zM162.484 618.676h-79.457v-212.189h70.019v65.453c0 19.646-0.455 37.928-1.364 54.847l-0.767 12.433h0.913c6.258-11.67 12.234-21.578 17.928-29.724l3.383-4.676 53.58-75.804h12.786l53.58 75.804c4.871 6.611 10.86 15.98 17.968 28.107l3.647 6.294h1.218c-1.279-13.699-1.982-33.235-2.11-58.606l-0.021-74.126h70.019v212.189h-78.239l-42.012-62.713c-10.786-15.657-19.558-29.002-26.318-40.036l-3.212-5.324-29.834 45.36-41.707 62.713zM499.795 618.676h-94.983l109.291-118.424v-93.765h72.759v93.156l111.118 119.033h-94.374l-34.096-39.272c-1.218-1.218-7.002-8.118-17.353-20.701-8.659 10.283-14.272 16.878-16.838 19.784l-0.819 0.917-34.705 39.272zM519.792 960c55.437 0 100.143-48.323 100.143-108.243 0-58.048-41.956-105.211-94.979-108.102l-5.165-0.14h-264.665c-55.437 0-100.143 48.323-100.143 108.243s44.707 108.243 100.143 108.243c27.957 0 53.966-11.786 71.486-32.609l3.622-4.599 57.225-79.732 57.225 79.732c17.436 23.678 45.154 37.208 75.108 37.208zM255.127 898.147c-23.695 0-42.919-20.779-42.919-46.39 0-24.188 17.147-44.066 39.013-46.2l3.905-0.19h87.178l-56.331 77.799c-4.918 6.282-15.647 14.98-30.848 14.98zM519.792 898.147c-13.68 0-23.739-7.045-29.199-13.034l-1.648-1.946-55.884-77.799h86.731c23.695 0 42.919 20.779 42.919 46.39s-19.224 46.39-42.919 46.39z" />
<glyph unicode="&#xe943;" glyph-name="casinoTournament" d="M706.56 878.080c-1.707 0-1.707 1.707-1.707 1.707l-1.707 23.893c0 1.707-1.707 1.707-3.413 1.707h-358.4c-1.707 0-3.413-1.707-3.413-1.707l-1.707-23.893c0-1.707 0-1.707-1.707-1.707-46.080-17.067-81.92-52.907-76.8-116.053 3.413-52.907 85.333-92.16 116.053-104.107 1.707-1.707 1.707-3.413 0-5.12-13.653-5.12-23.893-23.893-3.413-39.253 0 0 0 0 0 0 30.72-15.36 47.787 10.24 52.907 20.48 1.707 1.707 3.413 1.707 5.12 0 29.013-40.96 54.613-49.493 61.44-52.907 1.707 0 1.707-1.707 1.707-1.707v-54.613h-44.373c-13.653 0-23.893-10.24-23.893-23.893v-30.72c0-13.653 10.24-23.893 23.893-23.893h146.773c13.653 0 23.893 10.24 23.893 23.893v29.013c0 13.653-10.24 23.893-23.893 23.893h-44.373v54.613c0 1.707 0 1.707 1.707 1.707 6.827 1.707 32.427 11.947 61.44 52.907 1.707 1.707 3.413 1.707 5.12 0 5.12-10.24 22.187-35.84 52.907-20.48 0 0 0 0 0 0 20.48 15.36 10.24 34.133-3.413 39.253-1.707 0-1.707 3.413 0 5.12 29.013 11.947 110.933 52.907 116.053 104.107 5.12 64.853-30.72 100.693-76.8 117.76zM387.413 700.587c-64.853 10.24-69.973 30.72-81.92 49.493-11.947 17.067-8.533 40.96 3.413 58.027 13.653 20.48 34.133 34.133 37.547 10.24 5.12-34.133 35.84-97.28 44.373-116.053 0 0-1.707-1.707-3.413-1.707zM552.96 680.107h-49.493v124.587l-35.84-22.187-22.187 32.427 61.44 35.84h44.373v-170.667zM737.28 750.080c-11.947-18.773-15.36-39.253-81.92-49.493-1.707 0-3.413 1.707-3.413 3.413 8.533 17.067 39.253 81.92 44.373 116.053 3.413 23.893 23.893 10.24 37.547-10.24 11.947-18.773 15.36-40.96 3.413-59.733zM699.733 232.96h305.493v-155.307h-305.493v155.307zM346.453 413.867h327.68v-336.213h-327.68v336.213zM15.36 308.053h302.080v-232.107h-302.080v232.107z" />
<glyph unicode="&#xe944;" glyph-name="aviator" horiz-adv-x="1654" d="M1402.092 834.757c11.815-18.117 23.631-36.628 31.508-63.803l48.049-155.963-39.385-0.394c-1.969 0-3.938-0.788-5.908-1.575-2.636-1.277-4.863-3-6.673-5.094l-0.022-0.026-75.618 136.271c-16.682 44.483-34.776 103.384-49.984 163.435l-2.792 13.008c-0.514 2.618-0.809 5.628-0.809 8.706 0 9.993 3.102 19.262 8.394 26.896l-0.103-0.156c1.366 2.336 3.844 3.891 6.689 3.938h0.007c0.079 0.003 0.172 0.004 0.265 0.004 2.902 0 5.437-1.569 6.804-3.906l0.020-0.037 36.234-55.138 37.022-57.108 5.908-9.058zM1408.394 781.194l1.182 0.788c0.788 0 8.271 5.908 1.182 17.329-19.692 33.083-70.892 110.277-86.646 133.908 2.674-4.205 0.989-1.768-0.691 0.674l-4.429 6.809-1.182 1.575-0.788-1.575c-2.974-4.646-4.74-10.314-4.74-16.394 0-4.623 1.021-9.007 2.85-12.94l-0.079 0.189c10.24-18.511 81.526-114.215 91.766-128l0.788-1.575zM1424.148 576l-18.905 43.323c-19.692 33.083-48.443 31.508-72.862 27.175-42.142-7.877-68.135-14.966-111.458-27.569-24.418-7.483-54.351-16.148-96.492-27.569l-2.363-0.788c-17.329-5.12-47.262-13.391-64.591-7.877-16.935 6.302-29.538 11.815-39.778 16.148-18.511 7.877-29.538 12.997-44.111 11.422-34.658-3.938-106.338-38.991-184.714-97.28-18.511-13.785-21.268-29.538-23.631-42.142-0.788-3.938-1.182-7.877-2.363-11.422-0.069-0.314-0.108-0.675-0.108-1.046 0-1.081 0.335-2.084 0.907-2.91l-0.011 0.017c0-0.788 0.788-1.182 1.182-1.575l2.363-0.788 140.603-12.997c-1.774 0.83-2.981 2.6-2.981 4.652 0 0.893 0.229 1.733 0.631 2.464l-0.013-0.027c63.313 36.814 143.060 77.613 224.841 114.717l18.162 7.375c106.338 43.323 131.545 47.655 163.84 51.2l25.6-0.394c3.145-0.257 5.982-1.401 8.309-3.179l-0.038 0.028c2.757-1.969 4.332-4.332 5.514-7.483 23.843-68.026 50.828-126.139 82.65-181.102l-2.699 5.052c-2.373-4.175-6.49-7.123-11.334-7.866l-0.088-0.011c-5.514 0-16.148 9.452-23.631 16.542l-1.182 0.788-0.788 0.394c-0.874 0.715-2.002 1.149-3.232 1.149-0.99 0-1.914-0.281-2.698-0.768l0.022 0.013c-66.965-44.088-143.841-84.416-224.683-116.969l-8.868-3.154c-0.237-0.051-0.509-0.080-0.788-0.080s-0.551 0.029-0.813 0.084l0.026-0.005-64.985 24.812c3.545 4.332 6.302 9.452 8.665 14.572 0.998 2.353 1.578 5.089 1.578 7.961 0 0.109-0.001 0.218-0.002 0.326v-0.016c0 10.634-10.24 12.997-14.966 13.785-3.545 0-25.6 3.938-59.865 8.665-132.726 19.692-445.046 65.772-537.206 75.225-3.884 0.395-8.394 0.621-12.957 0.621-41.695 0-78.991-18.835-103.844-48.461l-0.171-0.21v-0.788l66.166-70.498c0.851-0.829 2.014-1.34 3.297-1.34 0.811 0 1.575 0.204 2.242 0.565l-0.025-0.012 51.594 24.418s7.089-22.449 0.788-26.388c-30.326-16.935-60.258-32.689-89.009-48.049l-36.234-19.692c-12.997-6.695-15.36-18.905-18.117-35.446l-2.757-12.997c-1.079-4.686-2.184-10.977-3.025-17.35l-0.125-1.16s90.191 46.080 145.723 73.255c0.552 0.222 1.192 0.35 1.861 0.35 1.43 0 2.723-0.586 3.652-1.531l0.001-0.001c5.47-6.544 11.005-12.453 16.852-18.038l0.083-0.079c0.069-0.314 0.108-0.675 0.108-1.046 0-1.081-0.335-2.084-0.907-2.91l0.011 0.017c-0.366-0.795-0.901-1.456-1.563-1.96l-0.013-0.009-3.545-1.575-33.477-18.905c-7.877-5.12 0-21.662 0-21.662l150.449 72.468s9.452-9.452-7.089-20.086c-25.994-16.542-263.089-140.209-283.569-140.997-34.658-0.788-89.403 42.142-133.514 77.194-17.139 14.802-36.212 28.354-56.508 40.016l-1.781 0.944c-29.145 12.603-61.046-6.302-102.794-31.508l-6.695-3.938c-11.815-7.877-4.726-25.6-4.726-25.6l65.772 33.871s7.877-9.452-1.182-15.36c-19.692-12.997-45.292-25.6-63.015-35.052-8.48-3.754-15.589-7.57-22.38-11.844l0.719 0.422c-10.24-7.877-6.302-43.323-6.302-43.323l61.834 29.538c0.78 0.505 1.733 0.806 2.757 0.806s1.977-0.3 2.777-0.818l-0.020 0.012 132.726-129.969c8.271 2.363 16.542 5.12 24.418 8.665l-110.671 121.305c-0.718 0.922-1.152 2.097-1.152 3.373 0 1.853 0.914 3.493 2.317 4.493l0.017 0.011c11.422 5.908 24.812 10.24 44.111-4.726l1.182-1.182 1.575-0.788c18.905-14.966 72.074-57.108 124.062-52.382 18.117 1.575 18.511-3.938 18.511-3.938s-23.237-11.815-50.412-26.782c-13.785-7.877-2.757-27.963-2.757-27.963 366.341 143.463 478.487 191.695 590.358 240.439l-250.075-97.079 2.363-1.182 40.566-33.083c5.908-9.058 294.597 104.763 383.606 150.843 3.151 1.575 24.812 1.182 44.898 0.788h27.175c9.846 0 9.452-4.726 9.452-4.726s-722.314-295.778-899.545-288.295l-37.809-16.542c7.089-4.726 11.028-10.634 14.966-15.754 7.877-11.028 13.785-18.905 39.385-5.12l4.726-9.846 3.151-7.089c7.089-16.148 7.483-16.542 55.138 0 45.686 15.754 145.723 47.655 262.695 85.071 230.4 73.649 528.541 168.566 619.126 206.769l0.788 0.394c77.194 32.689 183.138 77.194 249.305 119.335 65.378 41.354 78.769 63.015 43.323 142.572-6.539 12.976-17.136 37.242-27.201 61.783l-4.307 11.866zM872.369 499.2c-8.271-6.302-62.228 3.938-62.228 3.938s59.865 54.745 116.578 61.834c16.935 1.969 51.2-11.815 51.2-11.815s-76.406-32.689-105.551-53.957zM1053.538 553.157l-77.194-40.566s-17.723 11.028 2.363 20.48l14.178 7.877 12.209 6.695c2.357 1.185 3.947 3.584 3.947 6.355 0 0.12-0.003 0.239-0.009 0.357l0.001-0.017c-0.164 2.914-2.064 5.345-4.677 6.286l-0.049 0.016-57.108 23.631c7.371 5.991 16.872 9.62 27.221 9.62 4.335 0 8.521-0.637 12.471-1.822l-0.307 0.079c7.483-2.363 37.809-15.754 60.652-25.206l5.12-2.363c1.182 0 1.969-0.788 2.757-1.575 1.105-1.134 1.786-2.685 1.786-4.396 0-0.979-0.223-1.905-0.621-2.731l0.016 0.038c-0.592-1.21-1.547-2.165-2.722-2.741l-0.035-0.015zM1072.837 362.142c-7.877-11.815-25.206-32.689-51.2-28.357-7.877 1.182-209.132 43.323-360.369 74.831l-165.415 33.871c-3.938 1.182-3.151 9.058 3.151 7.877l570.289-80.345 2.363-1.182 1.575-1.969c0.286-0.644 0.452-1.396 0.452-2.186 0-1.088-0.315-2.102-0.859-2.957l0.013 0.022zM1176.025 519.68l41.354-49.625-41.354-79.557-211.495 42.142zM1653.76 206.966c-4.726 17.329-35.84 133.908-53.957 177.231l-82.708 152.025c-7.877-11.422-16.935-21.662-26.388-31.508-1.487-1.177-3.168-2.228-4.961-3.082l-0.159-0.068c-2.303-1.102-4.989-1.812-7.823-1.967l-0.054-0.002 44.505-149.662c5.514-19.692 17.329-37.415 28.751-54.745l7.089-10.634 27.569-42.142v-0.788h0.394l0.788-1.182 43.323-66.56c1.742-2.555 4.604-4.235 7.862-4.332h0.014c3.292 0.025 6.18 1.728 7.855 4.296l0.022 0.036c5.283 7.184 8.454 16.206 8.454 25.969 0 2.512-0.21 4.976-0.613 7.373l0.036-0.259zM1637.218 186.092l-0.788-1.575-1.182 1.575c-0.788 0.788-67.742 102.006-91.766 140.997-7.483 11.815 1.182 17.723 1.182 17.723l1.182 0.394 0.394-0.788c3.545-4.332 82.708-109.883 92.554-129.182 1.889-3.841 2.993-8.36 2.993-13.137 0-5.929-1.701-11.46-4.643-16.133l0.074 0.126zM1528.123 601.6c-16.21 2.558-34.903 4.019-53.936 4.019-12.212 0-24.283-0.601-36.185-1.776l1.506 0.12c-2.151-1.429-3.55-3.842-3.55-6.582 0-0.886 0.146-1.737 0.416-2.532l-0.016 0.055c11.815-30.326 22.055-53.563 35.446-81.132 1.182-1.969 2.757-3.151 4.726-3.545s3.938 0 5.908 0.788c21.711 20.635 39.465 45.193 52.164 72.573l0.612 1.47c3.545 8.271 1.182 14.966-7.089 16.542zM1460.381 560.64l-11.815 28.357c-0.271 0.578-0.43 1.255-0.43 1.969s0.158 1.391 0.442 1.998l-0.012-0.029c0.483 1.053 1.31 1.88 2.334 2.351l0.029 0.012 1.575 0.394s49.231 1.969 64.591-1.182c7.877-1.575 8.665-4.726 8.665-4.726zM1225.649 544.492l-21.662-10.24 39.778-51.988-0.755-2.643c-10.521-31.887-25.213-61.876-42.568-87.941l39.778 18.905c9.452 8.665 16.542 25.994 22.449 47.262l22.055-28.751 22.055 10.634-37.415 48.049c8.271 43.717 10.24 91.372 7.483 106.338 0 0-9.058-39.385-24.025-84.677z" />
<glyph unicode="&#xe945;" glyph-name="liveSport" d="M512-64c141.128 0 261.744 50.051 361.846 150.154s150.154 220.718 150.154 361.846c0 141.128-50.051 261.744-150.154 361.846s-220.718 150.154-361.846 150.154c-141.128 0-261.744-50.051-361.846-150.154s-150.154-220.718-150.154-361.846c0-141.128 50.051-261.744 150.154-361.846s220.718-150.154 361.846-150.154zM315.077 499.692l-120.615 56.615-12.308 4.923-54.154 157.538c54.154 77.128 128 133.744 221.538 169.846v0l140.308-98.462v-142.769l-174.769-147.692zM706.462 499.692l-174.769 147.692v142.769l142.769 98.462c90.256-32.821 164.103-89.436 221.538-169.846v0l-56.615-160-132.923-59.077zM297.846 177.231l-172.308 2.462c-47.59 67.282-74.667 142.769-81.231 226.462v0l132.923 113.231 120.615-54.154 2.462-2.462 49.231-189.538-51.692-96zM726.154 177.231l-51.692 96 49.231 189.538 123.077 56.615 132.923-113.231c-6.564-83.692-33.641-159.179-81.231-226.462v0l-172.308-2.462zM504.615-22.154c-29.538 0-60.718 4.103-93.538 12.308-1.641 0-4.513 0.821-8.615 2.462s-6.974 2.462-8.615 2.462v0l-61.538 160 49.231 96h260.923v-2.462l49.231-96-59.077-157.538c-3.282 0-6.564-0.821-9.846-2.462l-3.282-1.368c-2.188-0.729-4.376-1.094-6.564-1.094-37.744-8.205-73.846-12.308-108.308-12.308z" />
<glyph unicode="&#xe946;" glyph-name="tournament" d="M775.583 960h-527.166v-84.305h-180.324v-138.486c0-99.576 80.749-180.324 180.324-180.324h23.43c22.593-49.788 60.038-91.208 106.688-118.822 48.951-28.869 77.82-82.84 77.82-139.741v-109.408h-64.641c-19.873 0-36.19-16.108-36.19-36.19v-47.487h-55.227v-169.237h423.198v169.237h-55.227v47.487c0 19.873-16.108 36.19-36.19 36.19h-64.641v109.408c0 56.901 28.869 110.872 77.82 139.741 46.65 27.404 84.305 69.034 106.688 118.822h23.639c99.576 0 180.324 80.749 180.324 180.324v138.277h-180.324v84.514zM248.417 648.093c-49.16 0-89.116 39.956-89.116 89.116v47.068h89.116v-118.822c0-5.857 0.209-11.506 0.628-17.154h-0.628v-0.209zM585.218 97.079v-90.581h-146.435v90.581h146.435zM527.271 656.67l-46.232-46.022-46.022 46.232-44.349 44.767 46.232 46.022 44.349-44.558 106.061 105.224 46.022-46.232-106.061-105.433zM864.699 784.278v-47.068c0-49.16-39.956-89.116-89.116-89.116h-0.628c0.418 5.648 0.628 11.506 0.628 17.154v119.031h89.116z" />
<glyph unicode="&#xe947;" glyph-name="jackpot" d="M912 496c0 95.152-33.982 187.352-95.688 259.614-55.406 64.888-130.062 110.334-212.33 129.742l47.33 47.332c4.576 4.576 5.946 11.458 3.468 17.436s-8.308 9.876-14.78 9.876h-256c-6.472 0-12.306-3.898-14.782-9.876s-1.108-12.86 3.468-17.436l47.33-47.33c-82.244-19.404-156.882-64.83-212.286-129.694-61.732-72.27-95.73-164.488-95.73-259.664 0-175.816 114.020-325.502 272-378.998v-69.002h-106c-12.13 0-22-9.87-22-22v-74c0-8.836 7.164-16 16-16h480c8.836 0 16 7.164 16 16v74c0 12.13-9.87 22-22 22h-106v69.002c157.98 53.496 272 203.182 272 378.998zM601.374 928l-89.374-89.374-89.374 89.374h178.748zM643.356 723.516c2.52-1.456 5.27-2.146 7.986-2.146 5.53 0 10.908 2.87 13.872 8.002l12.38 21.444c35.58-23.202 66.022-53.642 89.222-89.222l-163.104-94.168c-5.864-3.386-8.758-9.922-7.812-16.234-0.846-3.594-0.47-7.494 1.364-11.028 7.124-13.72 10.734-28.58 10.734-44.164 0-52.934-43.066-96-96-96s-96 43.066-96 96 43.066 96 96 96c15.272 0 29.864-3.474 43.37-10.328 3.268-1.66 6.832-2.072 10.176-1.446 1.324-0.344 2.672-0.516 4.010-0.516 5.53 0 10.908 2.87 13.872 8.002l51.216 88.708c4.418 7.652 1.796 17.438-5.856 21.856-7.652 4.42-17.438 1.798-21.856-5.856l-45.286-78.44c-10.792 4.56-22.038 7.582-33.642 9.016v176.584c43.696-2.276 84.978-13.824 121.914-32.706l-12.414-21.502c-4.42-7.652-1.798-17.438 5.854-21.856zM720 480h95.58c-2.278-43.696-13.824-84.978-32.706-121.914l-152.896 88.274c4.462 10.566 7.51 21.862 8.986 33.64h17.036c8.836 0 16 7.164 16 16s-7.164 16-16 16h-17.016c-1.46 11.576-4.492 22.926-8.994 33.646l152.884 88.268c18.882-36.936 30.428-78.218 32.706-121.914h-95.58c-8.836 0-16-7.164-16-16s7.164-16 16-16zM677.594 241.184l-88.274 152.894c9.27 7.050 17.552 15.332 24.602 24.602l152.894-88.274c-23.202-35.58-53.642-66.020-89.222-89.222zM374.086 225.126l88.274 152.896c10.566-4.462 21.862-7.51 33.64-8.986v-176.616c-43.696 2.278-84.978 13.824-121.914 32.706zM257.184 330.406l152.894 88.274c7.050-9.27 15.332-17.552 24.602-24.602l-88.274-152.894c-35.58 23.202-66.020 53.642-89.222 89.222zM346.406 750.816l88.274-152.894c-9.27-7.050-17.552-15.332-24.602-24.602l-152.894 88.274c23.202 35.58 53.642 66.020 89.222 89.222zM496 622.964c-11.778-1.476-23.074-4.522-33.64-8.986l-88.274 152.896c36.936 18.882 78.218 30.428 121.914 32.706v-176.616zM241.126 633.914l152.896-88.274c-4.462-10.566-7.51-21.862-8.986-33.64h-176.616c2.278 43.696 13.824 84.978 32.706 121.914zM385.036 480c1.476-11.778 4.524-23.074 8.986-33.64l-152.896-88.274c-18.882 36.936-30.428 78.218-32.706 121.914h176.616zM528 369.036c11.778 1.476 23.074 4.524 33.64 8.986l88.274-152.896c-36.936-18.882-78.218-30.428-121.914-32.706v176.616zM144 496c0 87.562 31.274 172.4 88.062 238.88 55.384 64.838 131.636 108.548 215.036 123.394l28.28-28.28c-46.93-5.11-90.992-19.908-130.124-42.372-0.422-0.196-0.842-0.404-1.252-0.64-0.502-0.29-0.98-0.606-1.44-0.94-49.78-29.192-91.412-70.824-120.604-120.604-0.334-0.458-0.65-0.938-0.94-1.44-0.238-0.414-0.448-0.836-0.646-1.262-28.222-49.162-44.372-106.098-44.372-166.736s16.15-117.574 44.37-166.738c0.198-0.426 0.406-0.848 0.646-1.262 0.228-0.394 0.494-0.75 0.75-1.116 29.202-49.924 70.908-91.672 120.796-120.928 0.458-0.334 0.936-0.65 1.44-0.94 0.292-0.168 0.596-0.292 0.892-0.438 49.246-28.35 106.316-44.578 167.106-44.578s117.862 16.228 167.11 44.578c0.296 0.148 0.6 0.27 0.89 0.438 0.502 0.29 0.98 0.606 1.44 0.94 49.888 29.256 91.594 71.004 120.796 120.928 0.254 0.368 0.522 0.722 0.75 1.116 0.238 0.414 0.448 0.836 0.646 1.262 28.218 49.164 44.368 106.1 44.368 166.738s-16.15 117.574-44.37 166.738c-0.198 0.426-0.406 0.848-0.646 1.262-0.29 0.502-0.606 0.98-0.94 1.438-29.192 49.78-70.824 91.412-120.604 120.604-0.458 0.334-0.936 0.65-1.44 0.94-0.416 0.24-0.84 0.45-1.268 0.65-39.13 22.458-83.186 37.252-130.11 42.362l28.28 28.28c83.42-14.85 159.69-58.58 215.076-123.44 56.762-66.474 88.022-151.292 88.022-238.834 0-202.916-165.084-368-368-368s-368 165.084-368 368zM736-32h-448v48h448v-48zM608 48h-192v59.674c30.768-7.608 62.916-11.674 96-11.674s65.232 4.066 96 11.674v-59.674zM567.024 526.184l-26.316 7.758-15.51 22.63c-2.984 4.354-7.92 6.956-13.198 6.956s-10.214-2.602-13.198-6.956l-15.51-22.63-26.316-7.758c-5.062-1.492-9.062-5.384-10.692-10.402s-0.682-10.518 2.536-14.702l16.73-21.744-0.754-27.424c-0.144-5.276 2.32-10.284 6.59-13.384s9.792-3.898 14.764-2.13l25.85 9.19 25.85-9.192c1.744-0.62 3.556-0.924 5.36-0.924 3.334 0 6.634 1.042 9.406 3.056 4.27 3.102 6.734 8.11 6.59 13.384l-0.754 27.424 16.73 21.744c3.218 4.182 4.166 9.682 2.536 14.702s-5.632 8.91-10.694 10.402zM529.62 494.34c-2.244-2.916-3.414-6.518-3.314-10.198l0.27-9.774-9.214 3.276c-1.734 0.616-3.546 0.924-5.36 0.924s-3.626-0.308-5.36-0.924l-9.214-3.276 0.27 9.774c0.1 3.678-1.070 7.28-3.314 10.198l-5.964 7.75 9.38 2.766c3.53 1.040 6.592 3.266 8.674 6.302l5.528 8.066 5.528-8.066c2.082-3.036 5.144-5.262 8.674-6.302l9.38-2.766-5.964-7.75z" />
<glyph unicode="&#xe948;" glyph-name="target" d="M846.438 900.157l-49.766-49.562v-86.016l-268.083-268.083-13.926 6.349c-32.358 14.746-62.464 14.541-93.798-0.41-44.237-21.299-69.427-70.861-59.597-117.76 10.035-47.923 44.646-80.691 93.389-88.269 42.394-6.554 91.546 19.251 110.182 57.754 16.179 33.178 16.794 63.693 1.843 96.666l-6.349 13.926 268.083 268.083h86.016l49.562 49.766c49.152 49.152 49.766 49.766 49.766 58.368 0 6.554-1.434 10.035-5.939 15.155l-5.939 6.758-74.138 1.229v33.792c0 36.045-1.434 42.394-10.65 48.742-2.458 1.843-8.192 3.277-12.698 3.277-7.987 0-9.626-1.434-57.958-49.766zM886.784 829.501c5.12-7.782 14.336-10.65 33.997-10.65h18.227l-43.008-43.008h-56.32v56.32l21.094 21.094 20.89 21.094 1.024-20.070c0.819-12.493 2.253-21.914 4.096-24.781zM489.267 466.391l6.758-2.458-22.528-22.733c-24.371-24.576-27.034-28.467-27.034-38.093 0-9.216 11.469-20.48 20.89-20.48 9.216 0 13.107 2.867 38.707 28.262l21.914 21.299 2.662-7.782c4.506-12.902 3.277-33.382-2.867-46.49-10.65-23.347-30.72-36.659-57.139-37.888-13.517-0.819-17.203-0.205-27.648 4.506-40.141 18.432-52.224 67.379-25.19 101.581 15.974 20.275 46.694 28.877 71.475 20.275zM443.392 862.474c-168.96-10.24-317.030-109.978-389.53-262.349-13.722-28.672-27.853-70.861-34.202-101.376-14.336-69.018-12.288-146.637 5.939-213.811 36.25-134.758 135.987-249.037 264.397-302.899 102.605-43.008 215.245-47.514 320.512-13.107 169.574 55.501 289.997 201.933 313.344 380.928 3.072 24.576 3.072 85.402 0 109.568-8.397 63.283-29.901 126.771-60.416 177.766-14.95 24.986-21.504 30.925-32.973 29.491-10.445-1.434-19.456-10.854-19.456-20.275 0-4.301 4.301-13.517 12.288-27.034 40.346-68.403 59.392-137.216 59.392-214.63 0-161.382-90.726-304.742-237.568-375.194-101.581-48.742-223.642-52.838-327.885-11.469-226.918 90.522-328.499 352.461-220.774 569.139 30.72 61.85 70.451 109.568 124.518 149.914 72.499 54.067 156.672 81.715 248.013 81.715 77.21 0 145.818-19.046 214.221-59.392 13.517-7.987 22.733-12.288 27.034-12.288 9.421 0 18.842 9.011 20.275 19.456 1.434 11.469-4.506 18.022-29.082 32.768-76.186 45.466-170.394 68.608-258.048 63.078zM420.864 684.503c-64.307-11.264-121.446-43.418-166.502-94.003-31.949-36.045-55.296-83.558-65.331-133.53-4.915-25.395-4.915-81.101 0-105.062 12.493-58.982 37.888-106.291 79.053-147.661 41.37-41.165 88.678-66.56 147.661-79.053 23.962-4.915 79.667-4.915 105.062 0 39.731 7.987 81.306 26.010 114.278 49.766 33.997 24.576 71.066 68.813 88.678 106.086 18.637 39.322 25.6 68.403 27.238 113.050 0.819 26.010 0.41 37.478-2.458 54.272-5.939 36.659-20.89 77.619-30.925 85.606-7.578 5.939-19.251 5.734-27.034-0.819-9.216-7.782-9.626-14.746-1.638-34.406 21.709-52.429 25.19-101.581 11.264-156.058-17.818-70.246-73.728-133.53-142.131-160.973-89.702-35.84-190.874-14.95-259.277 53.248-79.258 79.462-93.184 201.114-34.202 296.755 13.312 21.709 49.971 59.392 70.246 72.499 70.246 45.466 150.938 52.838 227.942 20.89 15.36-6.349 18.022-6.963 24.166-4.915 14.336 4.71 19.866 22.118 10.854 33.587-7.782 9.83-49.971 25.395-84.173 30.925-23.552 3.891-70.656 3.686-92.774-0.205z" />
<glyph unicode="&#xe949;" glyph-name="ticket" d="M10.24 949.965v0 0zM263.987 352.87l183.808-183.808 337.203 337.203-183.808 183.808-337.203-337.203zM998.707 605.184l-78.234 78.131c-15.053-7.987-31.949-12.698-50.176-12.698-57.856 0-104.653 46.797-104.653 104.755 0 18.125 4.506 35.226 12.698 50.176l-78.336 78.131c-20.48 20.48-53.658 20.48-74.138 0l-569.446-569.549c-20.48-20.48-20.48-53.658 0-74.138l78.234-78.234c14.848 8.192 31.949 12.698 50.074 12.698 57.856 0 104.755-46.797 104.755-104.653 0-18.125-4.608-35.226-12.8-50.176l78.131-78.234c20.48-20.48 53.658-20.48 74.138 0l569.549 569.549c20.275 20.48 20.275 53.658 0 74.138l0.205 0.102zM447.795 84.992l-267.776 267.878 421.274 421.171 267.776-267.776-421.274-421.274z" />
<glyph unicode="&#xe94a;" glyph-name="infoPage" d="M912 496c0 95.152-33.982 187.352-95.688 259.614-55.406 64.888-130.062 110.334-212.33 129.742l47.33 47.332c4.576 4.576 5.946 11.458 3.468 17.436s-8.308 9.876-14.78 9.876h-256c-6.472 0-12.306-3.898-14.782-9.876s-1.108-12.86 3.468-17.436l47.33-47.33c-82.244-19.404-156.882-64.83-212.286-129.694-61.732-72.27-95.73-164.488-95.73-259.664 0-175.816 114.020-325.502 272-378.998v-69.002h-106c-12.13 0-22-9.87-22-22v-74c0-8.836 7.164-16 16-16h480c8.836 0 16 7.164 16 16v74c0 12.13-9.87 22-22 22h-106v69.002c157.98 53.496 272 203.182 272 378.998zM601.374 928l-89.374-89.374-89.374 89.374h178.748zM643.356 723.516c2.52-1.456 5.27-2.146 7.986-2.146 5.53 0 10.908 2.87 13.872 8.002l12.38 21.444c35.58-23.202 66.022-53.642 89.222-89.222l-163.104-94.168c-5.864-3.386-8.758-9.922-7.812-16.234-0.846-3.594-0.47-7.494 1.364-11.028 7.124-13.72 10.734-28.58 10.734-44.164 0-52.934-43.066-96-96-96s-96 43.066-96 96 43.066 96 96 96c15.272 0 29.864-3.474 43.37-10.328 3.268-1.66 6.832-2.072 10.176-1.446 1.324-0.344 2.672-0.516 4.010-0.516 5.53 0 10.908 2.87 13.872 8.002l51.216 88.708c4.418 7.652 1.796 17.438-5.856 21.856-7.652 4.42-17.438 1.798-21.856-5.856l-45.286-78.44c-10.792 4.56-22.038 7.582-33.642 9.016v176.584c43.696-2.276 84.978-13.824 121.914-32.706l-12.414-21.502c-4.42-7.652-1.798-17.438 5.854-21.856zM720 480h95.58c-2.278-43.696-13.824-84.978-32.706-121.914l-152.896 88.274c4.462 10.566 7.51 21.862 8.986 33.64h17.036c8.836 0 16 7.164 16 16s-7.164 16-16 16h-17.016c-1.46 11.576-4.492 22.926-8.994 33.646l152.884 88.268c18.882-36.936 30.428-78.218 32.706-121.914h-95.58c-8.836 0-16-7.164-16-16s7.164-16 16-16zM677.594 241.184l-88.274 152.894c9.27 7.050 17.552 15.332 24.602 24.602l152.894-88.274c-23.202-35.58-53.642-66.020-89.222-89.222zM374.086 225.126l88.274 152.896c10.566-4.462 21.862-7.51 33.64-8.986v-176.616c-43.696 2.278-84.978 13.824-121.914 32.706zM257.184 330.406l152.894 88.274c7.050-9.27 15.332-17.552 24.602-24.602l-88.274-152.894c-35.58 23.202-66.020 53.642-89.222 89.222zM346.406 750.816l88.274-152.894c-9.27-7.050-17.552-15.332-24.602-24.602l-152.894 88.274c23.202 35.58 53.642 66.020 89.222 89.222zM496 622.964c-11.778-1.476-23.074-4.522-33.64-8.986l-88.274 152.896c36.936 18.882 78.218 30.428 121.914 32.706v-176.616zM241.126 633.914l152.896-88.274c-4.462-10.566-7.51-21.862-8.986-33.64h-176.616c2.278 43.696 13.824 84.978 32.706 121.914zM385.036 480c1.476-11.778 4.524-23.074 8.986-33.64l-152.896-88.274c-18.882 36.936-30.428 78.218-32.706 121.914h176.616zM528 369.036c11.778 1.476 23.074 4.524 33.64 8.986l88.274-152.896c-36.936-18.882-78.218-30.428-121.914-32.706v176.616zM144 496c0 87.562 31.274 172.4 88.062 238.88 55.384 64.838 131.636 108.548 215.036 123.394l28.28-28.28c-46.93-5.11-90.992-19.908-130.124-42.372-0.422-0.196-0.842-0.404-1.252-0.64-0.502-0.29-0.98-0.606-1.44-0.94-49.78-29.192-91.412-70.824-120.604-120.604-0.334-0.458-0.65-0.938-0.94-1.44-0.238-0.414-0.448-0.836-0.646-1.262-28.222-49.162-44.372-106.098-44.372-166.736s16.15-117.574 44.37-166.738c0.198-0.426 0.406-0.848 0.646-1.262 0.228-0.394 0.494-0.75 0.75-1.116 29.202-49.924 70.908-91.672 120.796-120.928 0.458-0.334 0.936-0.65 1.44-0.94 0.292-0.168 0.596-0.292 0.892-0.438 49.246-28.35 106.316-44.578 167.106-44.578s117.862 16.228 167.11 44.578c0.296 0.148 0.6 0.27 0.89 0.438 0.502 0.29 0.98 0.606 1.44 0.94 49.888 29.256 91.594 71.004 120.796 120.928 0.254 0.368 0.522 0.722 0.75 1.116 0.238 0.414 0.448 0.836 0.646 1.262 28.218 49.164 44.368 106.1 44.368 166.738s-16.15 117.574-44.37 166.738c-0.198 0.426-0.406 0.848-0.646 1.262-0.29 0.502-0.606 0.98-0.94 1.438-29.192 49.78-70.824 91.412-120.604 120.604-0.458 0.334-0.936 0.65-1.44 0.94-0.416 0.24-0.84 0.45-1.268 0.65-39.13 22.458-83.186 37.252-130.11 42.362l28.28 28.28c83.42-14.85 159.69-58.58 215.076-123.44 56.762-66.474 88.022-151.292 88.022-238.834 0-202.916-165.084-368-368-368s-368 165.084-368 368zM736-32h-448v48h448v-48zM608 48h-192v59.674c30.768-7.608 62.916-11.674 96-11.674s65.232 4.066 96 11.674v-59.674zM567.024 526.184l-26.316 7.758-15.51 22.63c-2.984 4.354-7.92 6.956-13.198 6.956s-10.214-2.602-13.198-6.956l-15.51-22.63-26.316-7.758c-5.062-1.492-9.062-5.384-10.692-10.402s-0.682-10.518 2.536-14.702l16.73-21.744-0.754-27.424c-0.144-5.276 2.32-10.284 6.59-13.384s9.792-3.898 14.764-2.13l25.85 9.19 25.85-9.192c1.744-0.62 3.556-0.924 5.36-0.924 3.334 0 6.634 1.042 9.406 3.056 4.27 3.102 6.734 8.11 6.59 13.384l-0.754 27.424 16.73 21.744c3.218 4.182 4.166 9.682 2.536 14.702s-5.632 8.91-10.694 10.402zM529.62 494.34c-2.244-2.916-3.414-6.518-3.314-10.198l0.27-9.774-9.214 3.276c-1.734 0.616-3.546 0.924-5.36 0.924s-3.626-0.308-5.36-0.924l-9.214-3.276 0.27 9.774c0.1 3.678-1.070 7.28-3.314 10.198l-5.964 7.75 9.38 2.766c3.53 1.040 6.592 3.266 8.674 6.302l5.528 8.066 5.528-8.066c2.082-3.036 5.144-5.262 8.674-6.302l9.38-2.766-5.964-7.75z" />
<glyph unicode="&#xe94b;" glyph-name="byh" horiz-adv-x="997" d="M982.178 340.060c-23.87 30.087-67.721 35.659-97.698 11.701l-197.058-155.446c-9.989-7.801-21.647-11.701-34.414-11.701h-141.549c-19.426 0-34.97 15.6-34.97 34.544 0 19.502 15.543 35.102 34.97 35.102h118.234c38.303 0 69.387 31.757 69.387 70.201 0 38.446-31.084 69.645-69.942 69.645h-289.202c-37.19 0-73.827-12.813-103.246-35.659l-96.586-76.328c-6.106-5.015-7.216-13.374-2.22-19.502l188.175-238.463c2.776-3.344 6.661-5.015 10.547-5.573l227.587-1.671h62.725c38.303-1.116 75.493 11.701 104.914 35.657l238.689 189.435c29.974 23.959 35.525 67.975 11.657 98.617v-0.558zM69.624 235.251c-5.067 6.322-13.512 7.47-19.705 2.299l-44.476-35.635c-6.193-5.171-7.319-13.792-2.252-20.116l186.35-240.241c5.067-6.322 13.512-7.473 19.705-2.299l44.476 35.633c6.193 5.174 7.319 13.794 2.252 20.116l-186.35 240.244zM613.473 960c-137.37 0-248.843-113.799-248.843-254.036s111.473-254.035 248.843-254.035c137.37 0 248.843 113.799 248.843 254.035s-111.473 254.036-248.843 254.036zM599.398 754.817l57.425-30.461c34.344-17.817 52.359-55.174 46.166-94.259-4.503-30.461-23.646-54.601-49.543-66.094v-8.046c0-20.116-15.764-36.209-35.468-36.209-19.707 0-35.471 16.093-35.471 36.209v5.748c-27.586 9.194-50.669 29.885-63.054 58.624-7.882 18.392 0 39.656 18.58 47.702 18.014 8.046 38.845 0 46.727-18.966 5.629-13.794 19.704-21.841 34.342-20.69 11.261 1.722 14.077 8.046 14.638 13.218 0 2.873 1.126 13.22-9.006 18.392l-57.425 30.461c-34.908 18.392-52.922 56.9-46.166 95.982 6.193 34.485 29.839 60.348 61.928 68.969v5.173c0 20.116 15.764 36.209 35.471 36.209 19.704 0 35.468-16.093 35.468-36.209v-13.219c21.957-10.92 39.971-29.312 50.669-52.876 7.882-18.392 0-39.657-18.58-47.704-18.014-8.046-38.845 0-46.727 18.392-5.632 13.794-19.707 22.415-34.344 20.691-10.695-1.15-13.511-8.621-14.075-13.219-0.563-4.023-1.126-13.219 9.009-18.967l-0.563 1.15z" />
</font>
</defs>
</svg>
