<!-- Generated by IcoMoon.io -->
<svg version="1.1" xmlns="http://www.w3.org/2000/svg" width="1024" height="1024" viewBox="0 0 1024 1024">
<title></title>
<g id="icomoon-ignore">
</g>
<path d="M969.728 252.416c0 5.632-2.56 11.264-7.168 16.896-39.424 48.128-78.848 95.744-117.76 143.872-64 78.336-128.512 156.672-192.512 235.008-65.536 79.872-131.072 160.256-196.608 240.128-12.288 15.36-25.088 16.384-39.936 3.584-25.088-22.528-49.152-45.056-73.728-67.584-53.248-49.152-106.496-98.304-159.744-147.456-29.696-27.136-59.392-54.784-89.088-82.432-10.24-9.216-19.968-18.432-29.696-28.16-12.288-11.776-12.288-25.6-0.512-38.4 34.816-37.888 70.144-75.776 104.96-114.176 13.312-14.336 27.136-15.36 42.496-1.536 22.528 20.48 44.544 40.96 66.56 61.44 38.4 35.84 76.8 71.168 115.2 107.008 4.608 4.096 9.728 8.704 15.872 10.24 8.704 1.536 16.384-1.024 22.016-8.192 18.432-22.016 36.352-44.032 54.784-66.048 54.784-67.072 109.568-134.144 164.352-201.216 49.664-60.416 99.328-121.344 148.992-181.76 10.752-13.312 25.6-14.848 38.912-4.096 40.96 33.28 81.92 67.072 122.88 100.352 6.144 6.144 9.728 12.8 9.728 22.528z"></path>
</svg>
