<svg width="32" height="32" viewBox="0 0 32 32" fill="none" xmlns="http://www.w3.org/2000/svg">
<path d="M16 0.25C7.30234 0.25 0.25 7.30234 0.25 16C0.25 24.6977 7.30234 31.75 16 31.75C24.6977 31.75 31.75 24.6977 31.75 16C31.75 7.30234 24.6977 0.25 16 0.25ZM16 29.0781C8.77891 29.0781 2.92188 23.2211 2.92188 16C2.92188 8.77891 8.77891 2.92188 16 2.92188C23.2211 2.92188 29.0781 8.77891 29.0781 16C29.0781 23.2211 23.2211 29.0781 16 29.0781Z" fill="#FFFFFF"/>
<path d="M22.1102 10.375C22.1102 10.2203 21.9836 10.0938 21.8289 10.0938L19.5086 10.1043L16.0141 14.2703L12.523 10.1078L10.1992 10.0973C10.0445 10.0973 9.91797 10.2203 9.91797 10.3785C9.91797 10.4453 9.94258 10.5086 9.98477 10.5613L14.5586 16.0105L9.98477 21.4562C9.94228 21.5078 9.91871 21.5723 9.91797 21.6391C9.91797 21.7938 10.0445 21.9203 10.1992 21.9203L12.523 21.9098L16.0141 17.7437L19.5051 21.9062L21.8254 21.9168C21.9801 21.9168 22.1066 21.7938 22.1066 21.6355C22.1066 21.5688 22.082 21.5055 22.0398 21.4527L17.473 16.007L22.0469 10.5578C22.0891 10.5086 22.1102 10.4418 22.1102 10.375Z" fill="#FFFFFF"/>
</svg>
