<svg width="20" height="20" viewBox="0 0 20 20" fill="none" xmlns="http://www.w3.org/2000/svg">
<g clip-path="url(#clip0_503_579)">
<path d="M18.75 2.91666H1.25C0.918479 2.91666 0.600537 3.04835 0.366116 3.28277C0.131696 3.51719 0 3.83514 0 4.16666L0 15.8333C0 16.1648 0.131696 16.4828 0.366116 16.7172C0.600537 16.9516 0.918479 17.0833 1.25 17.0833H18.75C19.0815 17.0833 19.3995 16.9516 19.6339 16.7172C19.8683 16.4828 20 16.1648 20 15.8333V4.16666C20 3.83514 19.8683 3.51719 19.6339 3.28277C19.3995 3.04835 19.0815 2.91666 18.75 2.91666ZM18.4833 3.74999L10 10.3083L1.51667 3.74999H18.4833ZM0.833333 15.6625V4.27499L7.25417 9.23749L0.833333 15.6625ZM1.42083 16.25L7.91667 9.75416L9.74167 11.1667C9.81452 11.2227 9.90389 11.2532 9.99583 11.2532C10.0878 11.2532 10.1771 11.2227 10.25 11.1667L12.0833 9.75416L18.5792 16.25H1.42083ZM19.1667 15.6625L12.7458 9.23749L19.1667 4.27499V15.6625Z" fill="#7E98FF"/>
</g>
<defs>
<clipPath id="clip0_503_579">
<rect width="20" height="20" fill="white"/>
</clipPath>
</defs>
</svg>
