<!-- Generated by IcoMoon.io -->
<svg version="1.1" xmlns="http://www.w3.org/2000/svg" width="1024" height="1024" viewBox="0 0 1024 1024">
<title></title>
<g id="icomoon-ignore">
</g>
<path d="M31.744 512c-7.168-254.976 210.944-482.304 481.28-481.28 258.048 1.024 481.28 210.944 480.256 483.328-2.048 270.336-225.28 480.256-485.376 479.232-266.24-2.048-483.328-226.304-476.16-481.28zM273.408 697.344c0 11.264 1.024 16.384 5.12 24.576 16.384 31.744 58.368 38.912 83.968 13.312 47.104-46.080 93.184-92.16 139.264-139.264 7.168-7.168 11.264-6.144 17.408 0 45.056 46.080 91.136 91.136 136.192 136.192 4.096 4.096 8.192 8.192 14.336 11.264 22.528 12.288 52.224 7.168 67.584-12.288 17.408-21.504 15.36-52.224-4.096-71.68-46.080-46.080-92.16-92.16-137.216-138.24-10.24-10.24-10.24-10.24 0-19.456 45.056-45.056 91.136-91.136 136.192-136.192 17.408-17.408 21.504-40.96 12.288-61.44-15.36-32.768-58.368-40.96-84.992-14.336-47.104 46.080-93.184 92.16-139.264 139.264-7.168 7.168-11.264 6.144-17.408 0-45.056-46.080-91.136-91.136-136.192-136.192-4.096-4.096-8.192-8.192-14.336-11.264-22.528-12.288-52.224-7.168-67.584 12.288-17.408 21.504-15.36 52.224 4.096 71.68 46.080 46.080 92.16 92.16 137.216 138.24 10.24 10.24 10.24 10.24 0 19.456-45.056 45.056-91.136 91.136-136.192 136.192-11.264 10.24-16.384 22.528-16.384 37.888z"></path>
</svg>
