<svg xmlns="http://www.w3.org/2000/svg" width="20" height="20" viewBox="0 0 20 20" fill="none">
  <path
    d="M9.99935 4.16666C7.89518 4.16666 6.21029 5.12499 4.98372 6.26561C3.76497 7.39582 2.94987 8.74999 2.56445 9.67968C2.47852 9.88541 2.47852 10.1146 2.56445 10.3203C2.94987 11.25 3.76497 12.6042 4.98372 13.7344C6.21029 14.875 7.89518 15.8333 9.99935 15.8333C12.1035 15.8333 13.7884 14.875 15.015 13.7344C16.2337 12.6016 17.0488 11.25 17.4368 10.3203C17.5228 10.1146 17.5228 9.88541 17.4368 9.67968C17.0488 8.74999 16.2337 7.39582 15.015 6.26561C13.7884 5.12499 12.1035 4.16666 9.99935 4.16666ZM6.24935 9.99999C6.24935 9.00543 6.64444 8.0516 7.3477 7.34834C8.05096 6.64508 9.00479 6.24999 9.99935 6.24999C10.9939 6.24999 11.9477 6.64508 12.651 7.34834C13.3543 8.0516 13.7493 9.00543 13.7493 9.99999C13.7493 10.9946 13.3543 11.9484 12.651 12.6516C11.9477 13.3549 10.9939 13.75 9.99935 13.75C9.00479 13.75 8.05096 13.3549 7.3477 12.6516C6.64444 11.9484 6.24935 10.9946 6.24935 9.99999ZM9.99935 8.33332C9.99935 9.25259 9.25195 9.99999 8.33268 9.99999C8.14779 9.99999 7.9707 9.96874 7.80404 9.91405C7.66081 9.86718 7.49414 9.95572 7.49935 10.1068C7.50716 10.2864 7.5332 10.4661 7.58268 10.6458C7.93945 11.9792 9.31185 12.7708 10.6452 12.4141C11.9785 12.0573 12.7702 10.6849 12.4134 9.35155C12.1243 8.27082 11.1686 7.54426 10.1061 7.49999C9.95508 7.49478 9.86654 7.65884 9.91341 7.80468C9.9681 7.97134 9.99935 8.14843 9.99935 8.33332Z"
    fill="currentColor"
  />
</svg>