<svg xmlns="http://www.w3.org/2000/svg" width="24" height="24" viewBox="0 0 24 24" fill="none">
  <path
    d="M3.21268 4.15955C2.88768 3.9033 2.4158 3.96268 2.15955 4.28768C1.9033 4.61268 1.96268 5.08455 2.28768 5.3408L20.7877 19.8408C21.1127 20.097 21.5846 20.0377 21.8408 19.7127C22.0971 19.3877 22.0377 18.9158 21.7127 18.6596L18.4252 16.0846C19.6627 14.8158 20.5002 13.3939 20.9221 12.3846C21.0252 12.1377 21.0252 11.8627 20.9221 11.6158C20.4564 10.5002 19.4783 8.87518 18.0158 7.51893C16.5471 6.15018 14.5252 5.00018 12.0002 5.00018C9.86893 5.00018 8.09393 5.82205 6.70955 6.90018L3.21268 4.15955ZM8.97205 8.67205C9.76893 7.94393 10.8346 7.50018 12.0002 7.50018C14.4846 7.50018 16.5002 9.5158 16.5002 12.0002C16.5002 12.7783 16.3033 13.5096 15.9564 14.1471L14.7502 13.2033C15.0127 12.6002 15.0814 11.9096 14.9002 11.2252C14.5533 9.9283 13.4064 9.05643 12.1314 9.0033C11.9502 8.99705 11.8439 9.19393 11.9002 9.36893C11.9658 9.56893 12.0033 9.78143 12.0033 10.0033C12.0033 10.3221 11.9283 10.6221 11.7971 10.8877L8.97518 8.67518L8.97205 8.67205ZM13.6564 16.1846C13.1439 16.3877 12.5846 16.5002 12.0002 16.5002C9.5158 16.5002 7.50018 14.4846 7.50018 12.0002C7.50018 11.7846 7.5158 11.5752 7.54393 11.3689L4.59705 9.04705C3.88455 9.97518 3.37518 10.9002 3.0783 11.6158C2.97518 11.8627 2.97518 12.1377 3.0783 12.3846C3.54393 13.5002 4.52205 15.1252 5.98455 16.4814C7.4533 17.8502 9.47518 19.0002 12.0002 19.0002C13.4939 19.0002 14.8096 18.5971 15.9439 17.9846L13.6564 16.1846Z"
    fill="currentColor"
  />
</svg>